<?xml version="1.0" encoding="UTF-8"?>
<svg width="190px" height="30px" viewBox="0 0 190 30" version="1.1" xmlns="http://www.w3.org/2000/svg" xmlns:xlink="http://www.w3.org/1999/xlink">
    <!-- Generator: Sketch 49.2 (51160) - http://www.bohemiancoding.com/sketch -->
    <title>Footer</title>
    <desc>Created with Sketch.</desc>
    <defs></defs>
    <g id="Page-1" stroke="none" stroke-width="1" fill="none" fill-rule="evenodd" opacity="0.504780784">
        <g id="Homepage-Desktop-Copy" transform="translate(-544.000000, -3158.000000)" fill="#9B9DA0">
            <g id="Group-2" transform="translate(0.000000, 3077.000000)">
                <g id="Footer" transform="translate(544.000000, 81.000000)">
                    <path d="M68,30 C59.7157288,30 53,23.2842712 53,15 C53,6.71572875 59.7157288,0 68,0 C76.2842712,0 83,6.71572875 83,15 C83,23.2842712 76.2842712,30 68,30 Z M67.9113326,13.4439888 L67.9422931,13.9630226 L67.4262838,13.8994675 C65.5480098,13.6558393 63.9071001,12.8296222 62.5138748,11.4420011 L61.8327425,10.7534869 L61.6572993,11.2619282 C61.2857726,12.3953286 61.5231369,13.5922842 62.2971509,14.3973163 C62.7099584,14.8422024 62.6170767,14.9057576 61.9049838,14.6409444 C61.6572993,14.5562042 61.4405754,14.492649 61.419935,14.5244266 C61.3476937,14.5985743 61.5953782,15.5624943 61.7914618,15.9438253 C62.0597866,16.4734516 62.6067565,16.9924855 63.2053274,17.2996688 L63.7110165,17.5432969 L63.1124457,17.5538894 C62.5345152,17.5538894 62.5138748,17.5644819 62.575796,17.786925 C62.7821997,18.4754393 63.5974945,19.2063237 64.5056709,19.5240995 L65.1455225,19.7465426 L64.5882324,20.0855035 C63.7626174,20.5727597 62.7925199,20.8481654 61.8224223,20.8693505 C61.3580139,20.879943 60.976167,20.9223131 60.976167,20.9540907 C60.976167,21.060016 62.2352298,21.6531975 62.9679631,21.8862331 C65.1661629,22.5747474 67.7771701,22.2781566 69.7380056,21.1023861 C71.1312308,20.2655764 72.5244561,18.6025496 73.1746278,16.9924855 C73.5255142,16.1344908 73.8764005,14.5667967 73.8764005,13.8147273 C73.8764005,13.327471 73.9073611,13.2639158 74.4852916,12.6813268 C74.8258577,12.342366 75.1457835,11.9716275 75.2077046,11.8657022 C75.3109065,11.6644442 75.3005863,11.6644442 74.7742568,11.8445172 C73.8970409,12.162293 73.7731987,12.1199229 74.2066465,11.6432592 C74.5265723,11.3042983 74.9084192,10.6899317 74.9084192,10.5098587 C74.9084192,10.4780811 74.7536164,10.5310438 74.5781732,10.6263765 C74.3924099,10.7323018 73.9796024,10.8911897 73.6699968,10.9865225 L73.1127067,11.1665954 L72.6070176,10.817042 C72.3283725,10.6263765 71.9362054,10.414526 71.7298017,10.3509708 C71.2034722,10.2026754 70.3984976,10.2238605 69.923769,10.3933409 C68.6337456,10.8700047 67.8184509,12.0987378 67.9113326,13.4439888 Z" id="Twitter"></path>
                    <path d="M175,30 C166.715729,30 160,23.2842712 160,15 C160,6.71572875 166.715729,0 175,0 C183.284271,0 190,6.71572875 190,15 C190,23.2842712 183.284271,30 175,30 Z M172.09498,12.8474162 L169.729952,12.8474162 L169.729952,20.0717779 L172.09498,20.0717779 L172.09498,12.8474162 Z M172.250747,10.6126297 C172.235397,9.90428565 171.737161,9.36476844 170.928099,9.36476844 C170.119038,9.36476844 169.590102,9.90428565 169.590102,10.6126297 C169.590102,11.3063016 170.103405,11.8613541 170.8974,11.8613541 L170.912513,11.8613541 C171.737161,11.8613541 172.250747,11.3063016 172.250747,10.6126297 Z M180.624179,15.9295497 C180.624179,13.7105383 179.457439,12.6777742 177.901141,12.6777742 C176.645467,12.6777742 176.08328,13.378974 175.769385,13.8708783 L175.769385,12.847608 L173.404073,12.847608 C173.435245,13.5255048 173.404073,20.0719697 173.404073,20.0719697 L175.769385,20.0719697 L175.769385,16.0372901 C175.769385,15.8213778 175.784735,15.6059928 175.847268,15.4514067 C176.018196,15.0200614 176.407377,14.5734685 177.060766,14.5734685 C177.916917,14.5734685 178.25915,15.2359258 178.25915,16.2067403 L178.25915,20.0717779 L180.624084,20.0717779 L180.624179,15.9295497 Z" id="LinkedIn"></path>
                    <path d="M15,30 C6.71572875,30 0,23.2842712 0,15 C0,6.71572875 6.71572875,0 15,0 C23.2842712,0 30,6.71572875 30,15 C30,23.2842712 23.2842712,30 15,30 Z M16.0670729,23.1598365 L16.0670729,14.9990445 L18.2828783,14.9990445 L18.5765203,12.1867904 L16.0670729,12.1867904 L16.0708375,10.7792302 C16.0708375,10.045751 16.1393853,9.65273611 17.175603,9.65273611 L18.5608343,9.65273611 L18.5608343,6.84016353 L16.3447152,6.84016353 C13.6827997,6.84016353 12.7458745,8.20440933 12.7458745,10.4986418 L12.7458745,12.1871089 L11.0866087,12.1871089 L11.0866087,14.999363 L12.7458745,14.999363 L12.7458745,23.1598365 L16.0670729,23.1598365 Z" id="Facebook"></path>
                    <path d="M121,30 C112.715729,30 106,23.2842712 106,15 C106,6.71572875 112.715729,0 121,0 C129.284271,0 136,6.71572875 136,15 C136,23.2842712 129.284271,30 121,30 Z M129.952874,14.5438956 L127.44172,14.5438956 L127.44172,11.910519 C127.44172,11.7095969 127.286277,11.5461943 127.095066,11.5461943 L126.380029,11.5461943 C126.18748,11.5461943 126.032037,11.7095969 126.032037,11.910519 L126.032037,14.5438956 L123.520883,14.5438956 C123.329671,14.5438956 123.17356,14.7076489 123.17356,14.9089216 L123.17356,15.6589606 C123.17356,15.8602333 123.329671,16.0232853 123.520883,16.0232853 L126.032037,16.0232853 L126.032037,18.6580645 C126.032037,18.8593372 126.18748,19.0223891 126.380029,19.0223891 L127.095066,19.0223891 C127.286277,19.0223891 127.44172,18.8593372 127.44172,18.6580645 L127.44172,16.0229346 L129.952874,16.0229346 C130.144086,16.0229346 130.300197,15.8598827 130.300197,15.6586099 L130.300197,14.908571 C130.300197,14.7072982 130.144086,14.5438956 129.952874,14.5438956 Z M121.514166,16.8532723 C120.985994,16.4608956 120.50596,15.8854801 120.497603,15.7087528 C120.497603,15.3868567 120.525014,15.2329216 121.213309,14.6704801 C122.103177,13.9397268 122.59324,12.9789476 122.59324,11.9638177 C122.59324,11.0433632 122.325143,10.2256489 121.868843,9.65128525 L122.222851,9.65128525 C122.29606,9.65128525 122.367931,9.6274411 122.426431,9.58255798 L123.414246,8.83181772 C123.536929,8.73959694 123.588409,8.57514239 123.541609,8.42471382 C123.494474,8.2746359 123.362097,8.17224629 123.211334,8.17224629 L118.793414,8.17224629 C118.310037,8.17224629 117.818971,8.26166188 117.336931,8.43558395 C115.727011,9.01801252 114.601137,10.4570775 114.601137,11.9343632 C114.601137,14.0273891 116.146874,15.6137268 118.213094,15.663519 C118.172646,15.8293762 118.152254,15.9927788 118.152254,16.1530255 C118.152254,16.4756229 118.230143,16.7810385 118.3906,17.0762853 L118.333771,17.0762853 C116.36416,17.0762853 114.586429,18.0900125 113.911506,19.598506 C113.735671,19.9908827 113.646083,20.3874671 113.646083,20.7791424 C113.646083,21.1599476 113.739349,21.5263762 113.922203,21.8707138 C114.346411,22.6666878 115.25734,23.2841814 116.488514,23.6102853 C117.123991,23.7785969 117.806937,23.864506 118.515957,23.864506 C119.153106,23.864506 119.760503,23.7782463 120.322103,23.6078307 C122.073091,23.074493 123.205317,21.7223891 123.205317,20.1616489 C123.204983,18.6640255 122.746009,17.7674151 121.514166,16.8532723 Z M115.934603,20.281571 C115.934603,19.1921034 117.254029,18.236584 118.75798,18.236584 L118.798429,18.236584 C119.125694,18.2407917 119.444937,18.2912853 119.745794,18.3880645 C119.849089,18.4627528 119.948706,18.5339346 120.044311,18.6023112 C120.740963,19.1002333 121.201274,19.4287917 121.329306,19.9561684 C121.359391,20.0890645 121.374434,20.2219606 121.374434,20.3506489 C121.374434,21.7073112 120.41002,22.3949346 118.506931,22.3949346 C117.064489,22.3949346 115.934603,21.4671164 115.934603,20.281571 L115.934603,20.281571 Z M117.303169,9.98755798 C117.538171,9.70598655 117.846049,9.55731123 118.1917,9.55731123 L118.230811,9.55801252 C119.20726,9.58816837 120.141589,10.729532 120.313411,12.1023242 C120.41002,12.8709476 120.246889,13.5936359 119.878506,14.0340515 C119.642834,14.3163242 119.339303,14.4649995 118.979611,14.4649995 C118.979611,14.4649995 118.979611,14.4649995 118.978943,14.4649995 L118.963231,14.4649995 C118.00684,14.4341424 117.052454,13.2492982 116.881634,11.8782593 C116.785694,11.1117398 116.939466,10.4227138 117.303169,9.98755798 L117.303169,9.98755798 Z" id="Google-Plus"></path>
                </g>
            </g>
        </g>
    </g>
</svg>