<?xml version="1.0" encoding="UTF-8"?>
<svg width="98px" height="44px" viewBox="0 0 98 44" version="1.1" xmlns="http://www.w3.org/2000/svg" xmlns:xlink="http://www.w3.org/1999/xlink">
    <!-- Generator: Sketch 49.2 (51160) - http://www.bohemiancoding.com/sketch -->
    <title>Page 1</title>
    <desc>Created with Sketch.</desc>
    <defs>
        <polygon id="path-1" points="0 0.149074319 59.671793 0.149074319 59.671793 11.5773024 0 11.5773024"></polygon>
        <polygon id="path-3" points="0 43.7365269 97.9855116 43.7365269 97.9855116 0.108698133 0 0.108698133"></polygon>
    </defs>
    <g id="Page-1" stroke="none" stroke-width="1" fill="none" fill-rule="evenodd">
        <g id="Homepage-Desktop-Copy" transform="translate(-41.000000, -3089.000000)">
            <g id="Page-1" transform="translate(41.000000, 3089.000000)">
                <polygon id="Fill-1" fill="#ADADAD" points="10 19.1439517 10 26.3134985 10 35 13.1237303 34.1848712 14.7866491 33.8588197 14.7866491 27.8148027 14.7866491 19.9056081 27.5053144 6.05249429 42 19.297359 42 13.4928269 27.2176434 0"></polygon>
                <g id="Group-22">
                    <g id="Group-4" transform="translate(0.000000, 32.159211)">
                        <mask id="mask-2" fill="white">
                            <use xlink:href="#path-1"></use>
                        </mask>
                        <g id="Clip-3"></g>
                        <path d="M0.446583721,7.92332209 C0.766793023,7.4418987 0.991932558,7.18301705 1.26802558,6.85708344 C1.53174651,6.55366129 1.80083953,6.26840909 2.07416512,5.99698535 C2.62407209,5.45542423 3.19188605,4.96724741 3.77581628,4.5194304 C4.94416512,3.62604752 6.17356047,2.90037492 7.43160698,2.30961021 C9.95307209,1.1322615 12.5844209,0.509337584 15.1939558,0.27023385 C20.4183977,-0.229520289 25.5837465,0.884313984 30.4075605,2.37167749 C35.2723977,3.73538883 40.1242116,5.16808168 45.0243744,6.19428211 C47.4730721,6.68615724 49.9461884,7.06901265 52.4264674,6.97028387 C54.9059326,6.8914938 57.3707465,6.16887633 59.671793,4.95727806 C57.4384674,6.33401388 54.9813047,7.25553607 52.4528395,7.52213593 C49.9266535,7.81044325 47.3903744,7.60574988 44.8899093,7.291072 C39.8860488,6.62023086 34.9552814,5.54450525 30.0212581,4.54194185 C27.5396767,4.01694273 25.1422581,3.5083448 22.7007233,3.32584128 C20.269607,3.13031328 17.8353977,3.17919528 15.4622349,3.57411039 C13.0921651,3.96677436 10.7793977,4.70659701 8.67093256,5.87703149 C7.61914186,6.46248993 6.61635116,7.15294819 5.70358372,7.94985343 C5.24825814,8.34878845 4.81474651,8.77425481 4.4141186,9.22255421 C4.2147,9.44541754 4.02342093,9.67567749 3.84565349,9.90658063 C3.68221163,10.119153 3.4779093,10.4137314 3.41507209,10.5307909 C2.86695581,11.5717846 1.7227,11.8896784 0.858606977,11.2408663 C-0.00483488372,10.5925366 -0.259113953,9.22335819 0.289002326,8.18236453 C0.326281395,8.11322223 0.365513953,8.04681346 0.405723256,7.98345981 L0.446583721,7.92332209 Z" id="Fill-2" fill="#ADADAD" mask="url(#mask-2)"></path>
                    </g>
                    <path d="M25.7788674,14.5305606 C26.5967279,14.5305606 27.3330302,14.6481025 27.9881,14.8838296 C28.643007,15.1195566 29.2015419,15.4467765 29.6635419,15.8656503 C30.1252163,16.2846848 30.4794488,16.7837957 30.7254256,17.3633047 C30.9715651,17.9431353 31.0947977,18.5805309 31.0947977,19.2762954 C31.0947977,19.8747783 31.0094953,20.4280775 30.8390535,20.9366754 C30.6687744,21.445595 30.4358209,21.9299127 30.1405186,22.3896286 C29.8452163,22.8495053 29.5025419,23.2949104 29.1126581,23.724879 C28.7226116,24.1548477 28.3079837,24.590605 27.8689372,25.0319902 L24.6316814,28.3078882 C25.0479372,28.1882559 25.4589837,28.0930647 25.864007,28.021832 C26.2690302,27.9507602 26.6496349,27.9152242 27.0056581,27.9152242 L30.0951,27.9152242 C30.4737512,27.9152242 30.7727977,28.0181337 30.9925651,28.2236311 C31.212007,28.42945 31.3218907,28.7005522 31.3218907,29.0370983 L31.3218907,31.056536 L19.6906581,31.056536 L19.6906581,29.9348227 C19.6906581,29.717748 19.7362395,29.4860409 19.8270767,29.239219 C19.917914,28.9922362 20.0767977,28.7679257 20.3040535,28.5658051 L25.0746349,23.8202311 C25.4835651,23.4164722 25.8394256,23.0310441 26.1423791,22.6645899 C26.4451698,22.2982964 26.6950535,21.9371485 26.8920302,21.58195 C27.0888442,21.2267515 27.2364953,20.871553 27.3349837,20.516033 C27.4333093,20.1608345 27.4826349,19.7850541 27.4826349,19.388531 C27.4826349,18.7377894 27.3253791,18.2385176 27.0113558,17.8907158 C26.697007,17.5429139 26.2180767,17.3689326 25.5744023,17.3689326 C25.0518442,17.3689326 24.6106814,17.5056092 24.2510767,17.7784801 C23.8914721,18.051351 23.6435419,18.3899875 23.507286,18.7939072 C23.3482395,19.2052235 23.1398674,19.478416 22.8824953,19.6128415 C22.6249605,19.7474278 22.2577047,19.7774967 21.7807279,19.7025657 L19.917914,19.3774361 C20.0388674,18.5618785 20.2718209,17.8513207 20.6164488,17.245602 C20.960914,16.6395617 21.3888907,16.1348229 21.8998907,15.7309032 C22.4110535,15.3269835 22.9961233,15.0261341 23.6547744,14.8278725 C24.3137512,14.6297718 25.0215651,14.5305606 25.7788674,14.5305606" id="Fill-5" fill="#ADADAD"></path>
                    <polygon id="Fill-7" fill="#ADADAD" points="41.9453674 30.7241705 39.7037395 30.7241705 39.7037395 22.8704088 36.0972744 22.8704088 36.0972744 30.7241705 33.8556465 30.7241705 33.8556465 21.2357561 41.9453674 21.2357561"></polygon>
                    <path d="M46.5143163,29.3305511 C46.9846186,29.3305511 47.3307116,29.1666999 47.5527581,28.8388368 C47.7746419,28.5111344 47.8856651,28.0129882 47.8856651,27.3442374 C47.8856651,26.6758082 47.7746419,26.1786268 47.5527581,25.8530148 C47.3307116,25.5274028 46.9846186,25.3646772 46.5143163,25.3646772 C46.0308279,25.3646772 45.6769209,25.5274028 45.4527581,25.8530148 C45.2287581,26.1786268 45.1165953,26.6758082 45.1165953,27.3442374 C45.1165953,28.0129882 45.2287581,28.5111344 45.4527581,28.8388368 C45.6769209,29.1666999 46.0308279,29.3305511 46.5143163,29.3305511 M46.5143163,23.866862 C47.0329674,23.866862 47.505386,23.94726 47.9318977,24.1077344 C48.3580837,24.2685305 48.7240372,24.4984689 49.0295953,24.7980319 C49.3349907,25.097595 49.5723395,25.4613156 49.7416419,25.8888723 C49.9107814,26.3165899 49.9954326,26.7972093 49.9954326,27.331213 C49.9954326,27.869719 49.9107814,28.3548406 49.7416419,28.7867389 C49.5723395,29.2187979 49.3349907,29.5857344 49.0295953,29.8873878 C48.7240372,30.189202 48.3580837,30.4213915 47.9318977,30.5841172 C47.505386,30.7470036 47.0329674,30.8283664 46.5143163,30.8283664 C45.9912698,30.8283664 45.5154326,30.7470036 45.0869674,30.5841172 C44.6583395,30.4213915 44.2891302,30.189202 43.9793395,29.8873878 C43.669386,29.5857344 43.4297581,29.2187979 43.2606186,28.7867389 C43.0913163,28.3548406 43.0068279,27.869719 43.0068279,27.331213 C43.0068279,26.7972093 43.0913163,26.3165899 43.2606186,25.8888723 C43.4297581,25.4613156 43.669386,25.097595 43.9793395,24.7980319 C44.2891302,24.4984689 44.6583395,24.2685305 45.0869674,24.1077344 C45.5154326,23.94726 45.9912698,23.866862 46.5143163,23.866862" id="Fill-9" fill="#ADADAD"></path>
                    <path d="M55.045607,24.4788678 C55.1467,24.3270763 55.2818163,24.204389 55.4511186,24.1109664 C55.6202581,24.0177047 55.7972116,23.9710739 55.9818163,23.9710739 L57.5971884,23.9710739 L56.1597465,26.4259473 C56.0498628,26.6084508 55.9378628,26.7560616 55.8235837,26.8689404 C55.7093047,26.9818192 55.5707698,27.0686491 55.4083047,27.1292692 C55.6323047,27.2032354 55.814793,27.3074312 55.9554442,27.4420175 C56.0960953,27.5766038 56.2212814,27.7459221 56.3311651,27.9499723 L57.7619326,30.7241866 L56.3510256,30.7241866 C56.1708163,30.7241866 56.0137233,30.7101973 55.8795837,30.6817364 C55.7454442,30.6535971 55.625793,30.6113078 55.5203047,30.5548684 C55.4148163,30.4985897 55.322514,30.428965 55.2433977,30.3464767 C55.1642814,30.2641491 55.0916767,30.1684754 55.0257465,30.0599381 L54.3006767,28.3603238 C54.2347465,28.2082107 54.1390256,28.0964575 54.0138395,28.0249032 C53.8884907,27.9531882 53.7445837,27.9174915 53.5819558,27.9174915 L53.0677,27.9174915 L53.0677,30.7241866 L51.0238628,30.7241866 L51.0238628,23.9710739 L53.0677,23.9710739 L53.0677,26.6475242 L53.4896535,26.6475242 C53.6742581,26.6475242 53.8114907,26.6182593 53.9016767,26.5595688 C53.9917,26.5008782 54.0719558,26.4023102 54.1422814,26.2633824 L55.045607,24.4788678 Z" id="Fill-11" fill="#ADADAD"></path>
                    <path d="M61.4077605,29.3305511 C61.8780628,29.3305511 62.2241558,29.1666999 62.4462023,28.8388368 C62.668086,28.5111344 62.7791093,28.0129882 62.7791093,27.3442374 C62.7791093,26.6758082 62.668086,26.1786268 62.4462023,25.8530148 C62.2241558,25.5274028 61.8780628,25.3646772 61.4077605,25.3646772 C60.9242721,25.3646772 60.5703651,25.5274028 60.3462023,25.8530148 C60.1222023,26.1786268 60.0100395,26.6758082 60.0100395,27.3442374 C60.0100395,28.0129882 60.1222023,28.5111344 60.3462023,28.8388368 C60.5703651,29.1666999 60.9242721,29.3305511 61.4077605,29.3305511 M61.4077605,23.866862 C61.9264116,23.866862 62.3988302,23.94726 62.8253419,24.1077344 C63.2515279,24.2685305 63.6174814,24.4984689 63.9230395,24.7980319 C64.2284349,25.097595 64.4657837,25.4613156 64.635086,25.8888723 C64.8042256,26.3165899 64.8888767,26.7972093 64.8888767,27.331213 C64.8888767,27.869719 64.8042256,28.3548406 64.635086,28.7867389 C64.4657837,29.2187979 64.2284349,29.5857344 63.9230395,29.8873878 C63.6174814,30.189202 63.2515279,30.4213915 62.8253419,30.5841172 C62.3988302,30.7470036 61.9264116,30.8283664 61.4077605,30.8283664 C60.884714,30.8283664 60.4088767,30.7470036 59.9804116,30.5841172 C59.5517837,30.4213915 59.1825744,30.189202 58.8727837,29.8873878 C58.5628302,29.5857344 58.3232023,29.2187979 58.1540628,28.7867389 C57.9847605,28.3548406 57.9002721,27.869719 57.9002721,27.331213 C57.9002721,26.7972093 57.9847605,26.3165899 58.1540628,25.8888723 C58.3232023,25.4613156 58.5628302,25.097595 58.8727837,24.7980319 C59.1825744,24.4984689 59.5517837,24.2685305 59.9804116,24.1077344 C60.4088767,23.94726 60.884714,23.866862 61.4077605,23.866862" id="Fill-13" fill="#ADADAD"></path>
                    <path d="M72.4378233,23.9710417 L72.4378233,30.7241544 L70.393986,30.7241544 L70.393986,25.4622643 L69.147986,25.4622643 C69.0906837,26.2697821 69.0061953,26.9623307 68.8940326,27.5395886 C68.7820326,28.117168 68.647893,28.60438 68.4919395,29.0017071 C68.3358233,29.3988734 68.1611488,29.7180535 67.9677535,29.958926 C67.7743581,30.1999593 67.5689163,30.3845532 67.3512651,30.5125468 C67.1337767,30.6407013 66.9073349,30.7251192 66.6722651,30.7666046 C66.4370326,30.8077684 66.1985442,30.8283503 65.9568,30.8283503 C65.6535209,30.8283503 65.4392884,30.8032661 65.3141023,30.7535801 C65.1887535,30.7035725 65.1260791,30.6352342 65.1260791,30.5482436 L65.1260791,29.3369669 L65.554707,29.3369669 C65.6953581,29.3369669 65.8337302,29.3186361 65.9701488,29.281653 C66.1062419,29.2448307 66.2381023,29.1644327 66.3655674,29.0406197 C66.4930326,28.9171284 66.613986,28.7370368 66.7282651,28.5001842 C66.8425442,28.2636532 66.946893,27.9467242 67.0414744,27.5493971 C67.135893,27.1522309 67.2194047,26.6616421 67.2920093,26.0777916 C67.3644512,25.4939412 67.4227302,24.791584 67.4666837,23.9710417 L72.4378233,23.9710417 Z" id="Fill-15" fill="#ADADAD"></path>
                    <mask id="mask-4" fill="white">
                        <use xlink:href="#path-3"></use>
                    </mask>
                    <g id="Clip-18"></g>
                    <path d="M73.8683953,30.7241062 L75.9122326,30.7241062 L75.9122326,23.9709935 L73.8683953,23.9709935 L73.8683953,30.7241062 Z M76.1230465,22.1213565 C76.1230465,22.2821525 76.0901628,22.43314 76.0242326,22.5741582 C75.9583023,22.7153371 75.8681163,22.8389893 75.7538372,22.9452754 C75.6395581,23.0518832 75.5067209,23.136462 75.355,23.1993332 C75.2034419,23.2622045 75.0419535,23.2935597 74.8703721,23.2935597 C74.7033488,23.2935597 74.5473953,23.2622045 74.4023488,23.1993332 C74.2573023,23.136462 74.1286977,23.0518832 74.0166977,22.9452754 C73.9045349,22.8389893 73.8166279,22.7153371 73.7529767,22.5741582 C73.6891628,22.43314 73.6572558,22.2821525 73.6572558,22.1213565 C73.6572558,21.9565405 73.6891628,21.8023371 73.7529767,21.6590678 C73.8166279,21.5159593 73.9045349,21.390056 74.0166977,21.2815187 C74.1286977,21.1729813 74.2573023,21.0884026 74.4023488,21.0274609 C74.5473953,20.96668 74.7033488,20.9362895 74.8703721,20.9362895 C75.0419535,20.9362895 75.2034419,20.96668 75.355,21.0274609 C75.5067209,21.0884026 75.6395581,21.1729813 75.7538372,21.2815187 C75.8681163,21.390056 75.9583023,21.5159593 76.0242326,21.6590678 C76.0901628,21.8023371 76.1230465,21.9565405 76.1230465,22.1213565 Z" id="Fill-17" fill="#ADADAD" mask="url(#mask-4)"></path>
                    <polygon id="Fill-19" fill="#ADADAD" mask="url(#mask-4)" points="83.5402628 23.9710417 83.5402628 30.7241544 81.4964256 30.7241544 81.4964256 27.8717932 79.3866581 27.8717932 79.3866581 30.7241544 77.3428209 30.7241544 77.3428209 23.9710417 79.3866581 23.9710417 79.3866581 26.4260759 81.4964256 26.4260759 81.4964256 23.9710417"></polygon>
                    <polygon id="Fill-20" fill="#ADADAD" mask="url(#mask-4)" points="91.1221907 23.9710417 91.1221907 30.7241544 89.0783535 30.7241544 89.0783535 27.8717932 86.968586 27.8717932 86.968586 30.7241544 84.9247488 30.7241544 84.9247488 23.9710417 86.968586 23.9710417 86.968586 26.4260759 89.0783535 26.4260759 89.0783535 23.9710417"></polygon>
                    <path d="M94.5307349,26.0679831 C94.5307349,26.3326534 94.6098512,26.5421706 94.7680837,26.6963741 C94.9263163,26.8504167 95.1307814,26.9275988 95.3811535,26.9275988 L96.0471302,26.9275988 L96.0471302,25.2342555 L95.3811535,25.2342555 C95.2185256,25.2342555 95.0822698,25.2595005 94.972386,25.3091865 C94.8625023,25.3591941 94.7747581,25.4243165 94.7088279,25.5045537 C94.6427349,25.5849517 94.5966651,25.6751583 94.570293,25.7748519 C94.5439209,25.874867 94.5307349,25.9724702 94.5307349,26.0679831 Z M97.9854791,30.7241544 L96.0471302,30.7241544 L96.0471302,28.125851 L95.9349674,28.125851 C95.803107,28.1301925 95.6943628,28.1464329 95.6087349,28.174733 C95.5229442,28.2028723 95.4526186,28.2396946 95.3977581,28.2853607 C95.3427349,28.330866 95.2955256,28.385215 95.2559674,28.4482471 C95.2164093,28.5111183 95.1768512,28.5772055 95.137293,28.6466694 L94.3988744,30.0599059 C94.3329442,30.1727848 94.2647349,30.2705488 94.1945721,30.3528763 C94.1240837,30.4355255 94.0405721,30.5038638 93.9440372,30.5580521 C93.8471767,30.6124012 93.7340372,30.6537258 93.6044558,30.6817043 C93.4747116,30.7101652 93.3197349,30.7241544 93.1395256,30.7241544 L91.7286186,30.7241544 L93.2186419,28.4709193 C93.3285256,28.2798936 93.4559907,28.125851 93.6012,28.0084699 C93.7460837,27.8914103 93.9175023,27.8000782 94.115293,27.7349558 C93.812014,27.6699942 93.5559442,27.5733557 93.3472465,27.4452013 C93.1385488,27.3173684 92.9692465,27.1728128 92.8396651,27.0121775 C92.7099209,26.8515423 92.6164791,26.682224 92.5593395,26.5042228 C92.5022,26.3262215 92.4737116,26.1548129 92.4737116,25.9898362 C92.4737116,25.7293466 92.5274326,25.4785047 92.6352,25.2376322 C92.7429674,24.996599 92.912107,24.7817754 93.1429442,24.5928401 C93.3736186,24.4039047 93.668107,24.2532388 94.0264093,24.14036 C94.3845488,24.0274811 94.8164326,23.9710417 95.3218977,23.9710417 L97.9854791,23.9710417 L97.9854791,30.7241544 Z" id="Fill-21" fill="#ADADAD" mask="url(#mask-4)"></path>
                </g>
            </g>
        </g>
    </g>
</svg>