<?xml version="1.0" encoding="UTF-8"?>
<svg width="165px" height="208px" viewBox="0 0 165 208" version="1.1" xmlns="http://www.w3.org/2000/svg" xmlns:xlink="http://www.w3.org/1999/xlink">
    <!-- Generator: Sketch 49.2 (51160) - http://www.bohemiancoding.com/sketch -->
    <title>Page 1</title>
    <desc>Created with Sketch.</desc>
    <defs>
        <polygon id="path-1" points="0 0.0162321629 21.8877154 0.0162321629 21.8877154 65.9563782 0 65.9563782"></polygon>
        <polygon id="path-3" points="0.348604787 0.21234082 28.9155348 0.21234082 28.9155348 17 0.348604787 17"></polygon>
        <polygon id="path-5" points="0.171381152 0.21234082 28.7383112 0.21234082 28.7383112 17 0.171381152 17"></polygon>
        <polygon id="path-7" points="0 208 165 208 165 0 0 0"></polygon>
    </defs>
    <g id="Page-1" stroke="none" stroke-width="1" fill="none" fill-rule="evenodd">
        <g id="Homepage-Desktop-Copy" transform="translate(-575.000000, -868.000000)">
            <g id="Page-1" transform="translate(575.000000, 868.000000)">
                <g id="Group-3" transform="translate(0.000000, 87.000000)">
                    <mask id="mask-2" fill="white">
                        <use xlink:href="#path-1"></use>
                    </mask>
                    <g id="Clip-2"></g>
                    <path d="M12.0355231,17.9769563 C14.1014077,13.0624313 17.3984462,8.56081875 21.8877154,5.55245625 C20.8503308,3.63309375 19.3230231,1.96700625 17.4822154,0.74930625 C14.5997923,-1.16139375 13.2979846,1.03805625 11.6382538,3.06508125 C9.79744615,5.31568125 8.14236923,7.70405625 6.70771538,10.2215438 C3.87394615,15.1880438 1.88336923,20.6111813 0.841753846,26.2009688 C0.254523077,29.3471063 -0.0323230769,32.5448063 0.00279230769,35.7420938 C0.0561,40.7217938 0.850215385,45.6540563 1.69340769,50.5685813 C1.69340769,50.5685813 0.370446154,56.4970313 1.10617692,58.3161563 C1.10617692,58.3161563 1.48990769,63.3028688 4.9456,65.0861063 C4.9456,65.0861063 7.9926,67.0124813 8.30017692,65.1331313 C8.30017692,65.1331313 12.7022923,66.5084063 12.3710231,63.1337438 C12.3710231,63.1337438 17.1276769,64.5882188 16.2544462,60.0655688 C16.2544462,60.0655688 19.8844462,60.3893813 17.9806,56.7692813 C17.9806,56.7692813 17.5097154,55.9446938 17.3950615,53.3909063 C17.3950615,53.3909063 17.1336,50.4625688 13.8429077,49.5245438 C13.8429077,49.5245438 13.4985231,48.8047313 11.2807538,45.8000813 C10.6761769,44.9565188 10.1904846,44.0312813 9.8241,43.0759313 C8.67629231,40.0461188 8.62340769,36.7366313 8.80025385,33.5133563 C9.0871,28.2110813 9.97386923,22.8918938 12.0355231,17.9769563" id="Fill-1" fill="#FDC288" mask="url(#mask-2)"></path>
                </g>
                <path d="M95.5169414,96.8027091 C91.7466396,93.0072662 88.8251839,88.253273 87.7377163,83 C85.5673382,83.1929604 83.4466728,83.9297939 81.6217987,85.1263149 C78.7608268,86.999239 80.3052379,89.0409513 81.5542721,91.3406388 C82.9425021,93.8916332 84.5283406,96.3280182 86.3171729,98.6147861 C89.8447106,103.128725 94.1142118,107.055031 98.8978263,110.184489 C101.58936,111.946555 104.442461,113.456064 107.417772,114.672589 C112.049763,116.569269 116.918718,117.773291 121.790158,118.926886 C121.790158,118.926886 126.780081,122.443516 128.743736,122.486025 C128.743736,122.486025 133.50788,124.085137 136.467449,121.642084 C136.467449,121.642084 139.405061,119.625794 137.78111,118.612648 C137.78111,118.612648 140.720793,115.150197 137.469576,114.1333 C137.469576,114.1333 140.617225,110.379534 136.097917,109.40723 C136.097917,109.40723 137.771581,106.236095 133.697617,106.551583 C133.697617,106.551583 132.755974,106.657441 130.346974,105.763905 C130.346974,105.763905 127.536129,104.858283 125.421264,107.480961 C125.421264,107.480961 124.624616,107.513051 121.00221,108.354492 C119.991797,108.574542 118.951143,108.654143 117.927473,108.614134 C114.686613,108.473269 111.601105,107.229237 108.682549,105.809749 C103.879878,103.478804 99.2889004,100.595235 95.5169414,96.8027091" id="Fill-4" fill="#FDC288"></path>
                <g id="Group-8" transform="translate(54.000000, 191.000000)">
                    <mask id="mask-4" fill="white">
                        <use xlink:href="#path-3"></use>
                    </mask>
                    <g id="Clip-7"></g>
                    <path d="M0.970113043,7.28947561 C0.635142029,8.17803659 0.295127536,9.09852439 0.355649275,10.0443049 C0.467026087,11.7857683 1.91198261,13.1747927 3.4699971,14.0011585 C5.26589565,14.9535732 7.2895913,15.3914268 9.28975072,15.7824268 C15.0258667,16.9035976 21.0494609,17.7150366 26.6510841,16.0577439 C27.2495768,15.8811098 27.8632,15.6621829 28.3003014,15.2218415 C28.9878957,14.5281585 29.0748957,13.3949634 28.6819246,12.5055732 C28.2889536,11.6170122 27.4946058,10.9511098 26.626287,10.4958415 C25.7579681,10.0409878 24.8064319,9.76857317 23.8767507,9.45303659 C19.0946928,7.8285 14.7526783,4.96213415 11.4067507,1.22047561 C11.0890116,0.86554878 10.7611855,0.489060976 10.3123159,0.319890244 C9.88530145,0.159841463 9.41037391,0.211256098 8.95646087,0.265573171 C7.83218551,0.3995 6.70791014,0.533012195 5.58405507,0.666939024 C4.87376522,0.75152439 3.62130145,0.618426829 3.21446087,1.30837805 C2.74289565,2.10862195 2.51341739,3.19703659 2.18601159,4.06569512 L0.970113043,7.28947561 Z" id="Fill-6" fill="#4A4342" mask="url(#mask-4)"></path>
                </g>
                <g id="Group-11" transform="translate(20.000000, 191.000000)">
                    <mask id="mask-6" fill="white">
                        <use xlink:href="#path-5"></use>
                    </mask>
                    <g id="Clip-10"></g>
                    <path d="M28.1168029,7.28947561 C28.4517739,8.17803659 28.7917884,9.09852439 28.7312667,10.0443049 C28.6198899,11.7857683 27.1749333,13.1747927 25.6169188,14.0011585 C23.8210203,14.9535732 21.7973246,15.3914268 19.7971652,15.7824268 C14.060629,16.9035976 8.03745507,17.7150366 2.43583188,16.0577439 C1.83733913,15.8811098 1.22371594,15.6621829 0.786614493,15.2218415 C0.0990202899,14.5281585 0.0120202899,13.3949634 0.404991304,12.5055732 C0.797962319,11.6170122 1.59231014,10.9511098 2.46062899,10.4958415 C3.32852754,10.0409878 4.28048406,9.76857317 5.21016522,9.45303659 C9.99222319,7.8285 14.3342377,4.96213415 17.6801652,1.22047561 C17.9974841,0.86554878 18.3257304,0.489060976 18.7741797,0.319890244 C19.2016145,0.159841463 19.676542,0.211256098 20.1304551,0.265573171 C21.2547304,0.3995 22.3785855,0.533012195 23.5028609,0.666939024 C24.2131507,0.75152439 25.4656145,0.618426829 25.8724551,1.30837805 C26.3440203,2.10862195 26.5734986,3.19703659 26.9009043,4.06569512 L28.1168029,7.28947561 Z" id="Fill-9" fill="#4A4342" mask="url(#mask-6)"></path>
                </g>
                <path d="M25,145 C25,145 32.2856745,178.29312 35.8096123,189 L48.0000464,189 C48.0000464,189 46.428651,162.139662 47.0952403,152.935784 C47.0952403,152.935784 50.8573949,153.358207 52,153.006257 L52,145.046982 L25,145 Z" id="Fill-12" fill="#8C653E"></path>
                <path d="M47.3080156,193 L36.69157,193 C35.757104,193 35,192.274424 35,191.378872 L35,189.621128 C35,188.725576 35.757104,188 36.69157,188 L47.3080156,188 C48.2424816,188 49,188.725576 49,189.621128 L49,191.378872 C49,192.274424 48.2424816,193 47.3080156,193" id="Fill-14" fill="#77512F"></path>
                <path d="M79,145 C79,145 71.62345,178.29312 68.0902149,189 L55.8676185,189 C55.8676185,189 57.5148134,162.139662 56.8464654,152.935784 C56.8464654,152.935784 53.1460386,153.358207 52,153.006257 L52,145.046982 L79,145 Z" id="Fill-16" fill="#8C653E"></path>
                <path d="M56.6919844,193 L67.30843,193 C68.242896,193 69,192.274424 69,191.378872 L69,189.621128 C69,188.725576 68.242896,188 67.30843,188 L56.6919844,188 C55.7575184,188 55,188.725576 55,189.621128 L55,191.378872 C55,192.274424 55.7575184,193 56.6919844,193" id="Fill-18" fill="#77512F"></path>
                <path d="M100,92.7278122 L89.7578221,105.102484 L82.988999,102.143675 L78.0672009,145.054902 C78.0672009,145.054902 71.3416025,149.383201 52.4228956,148.97252 C35.0606938,149.076432 25.0047147,145.054902 25.0047147,145.054902 L21.011001,102.143675 L14.2425935,105.102484 L4,92.7278122 L28.3787357,74.5783486 L29.046225,74.0819707 L29.0940215,74.0819707 L49.8169444,74.0169737 L49.8169444,74 L51.9977141,74.0082799 L54.1834712,74 L54.1834712,74.0169737 L74.9063941,74.0819707 L74.9496188,74.0819707 L75.3008196,74.3452704 L100,92.7278122 Z" id="Fill-20" fill="#5AAA9D"></path>
                <mask id="mask-8" fill="white">
                    <use xlink:href="#path-7"></use>
                </mask>
                <g id="Clip-23"></g>
                <polygon id="Fill-22" fill="#F1C40F" mask="url(#mask-8)" points="32 149 38 149 38 74 32 74"></polygon>
                <polygon id="Fill-24" fill="#F1C40F" mask="url(#mask-8)" points="66 149 72 149 72 74 66 74"></polygon>
                <path d="M80,37.6688193 L80,62.5556163 C80,63.976089 79.8387022,65.366578 79.5332393,66.7004314 C78.6962459,69.5892671 77.1835568,72.2228258 75.1606486,74.4212061 L75.2045249,74.4212061 L75.557625,74.6860611 C71.7516659,79.2693862 65.8525964,82.2240192 59.2606986,82.2240192 C59.2606986,82.2240192 56.2223665,85 51.871505,85 C47.516047,85 44.4814757,82.2240192 44.4814757,82.2240192 C38.0032385,82.2240192 32.1919217,79.3697479 28.381366,74.9205161 L29.0528829,74.4212061 L29.100938,74.4212061 C25.9267981,70.9668465 24,66.4572311 24,61.5432537 L24,36.6522923 C24,35.2572224 24.1571191,33.8933855 24.4492102,32.5807705 C26.8293971,24.2086855 34.9252087,18 44.4814757,18 L59.2606986,18 C70.6660399,18 80,26.8501566 80,37.6688193" id="Fill-25" fill="#000000" mask="url(#mask-8)"></path>
                <path d="M80,36.6641163 L80,61.554923 C80,63.3364369 79.7483641,65.0696443 79.2750392,66.7120686 C78.4419373,69.6013028 76.9362815,72.2344287 74.9227787,74.4327953 C71.130356,78.5863297 65.549863,81.2190392 59.3529661,81.2190392 C59.3529661,81.2190392 56.3329199,84 51.9977124,84 C47.6670801,84 44.6424587,81.2190392 44.6424587,81.2190392 C38.450137,81.2190392 32.8700599,78.5863297 29.0772213,74.4327953 C25.9178396,70.9784572 24,66.4688698 24,61.554923 L24,36.6641163 C24,35.2690551 24.1563886,33.9052266 24.4471216,32.5930362 C26.4298457,23.7121183 34.7529616,17 44.6424587,17 L59.3529661,17 C70.7094378,17 80,25.8501016 80,36.6641163" id="Fill-26" fill="#FDC288" mask="url(#mask-8)"></path>
                <path d="M64.3755647,66.3002747 C63.355368,68.9253356 60.7607936,72.0668608 54.3377525,73.6378231 C54.3377525,73.6378231 44.9145773,76.3667361 40.4987628,66.8431015 C40.3182342,66.4728289 40.1532394,66.0813865 40,65.6743662 C40,65.6743662 50.9753016,70.7307639 64.9293258,62 C64.9293258,62 65.2916426,63.9416343 64.3755647,66.3002747" id="Fill-27" fill="#FFFFFF" mask="url(#mask-8)"></path>
                <path d="M40.7512819,66.5601032 C40.8521086,66.8205504 40.9541649,67.0619506 41.0590903,67.2901006 C45.2425787,76.871576 53.9460546,74.3316983 54.3128835,74.2178303 C60.6395542,72.5748184 63.0581655,69.2465601 63.9746229,66.7435342 L63.9746229,66.7439483 C64.6275373,64.9572557 64.5972073,63.3925022 64.5426953,62.7320678 C52.6935082,70.4510766 42.9547143,67.4176328 40.7512819,66.5601032 M51.4397323,75 C48.3050874,75 43.4559787,73.8497261 40.6697188,67.4685629 C40.5008546,67.1017009 40.3389581,66.6996433 40.1766517,66.242515 L40,65.7452223 L40.4709345,65.9750287 C40.5766796,66.0267869 51.2434071,71.0522997 64.598027,62.1805326 L64.8689475,62 L64.9255089,62.3233851 C64.9406739,62.4078545 65.2792221,64.4222831 64.3754705,66.89384 L64.3754705,66.894254 C63.4237648,69.4933431 60.9256397,72.9470633 54.4280554,74.6339661 C54.3981353,74.6430756 53.1841162,75 51.4397323,75" id="Fill-28" fill="#EEA872" mask="url(#mask-8)"></path>
                <path d="M65,67 C63.9745393,69.7274333 61.3665776,72.991472 54.9103953,74.6236989 C54.9103953,74.6236989 45.438599,77.4590343 41,67.563996 C45.6369391,70.0797752 55.5885497,73.8700442 65,67" id="Fill-29" fill="#ED755C" mask="url(#mask-8)"></path>
                <path d="M80.780137,61.2022197 L80.0720404,62 C80.0720404,62 79.8141739,49.1229165 78.9804606,45.8942625 C78.9804606,45.8942625 77.0833587,38.624995 74.1444262,37.1987489 C74.1444262,37.1987489 76.7293104,28.2459272 69.9758599,25.2745813 C69.9758599,25.2745813 61.783829,33.5939329 48.40213,33.5342974 C48.40213,33.5342974 39.0849386,34.2474205 30.6433327,28.4239995 C30.6433327,28.4239995 28.6421721,31.7519069 30.268141,36.0894464 C30.268141,36.0894464 24.8276541,41.853649 24.1398717,48.9252438 C24.1398717,48.9252438 23.8616909,58.1770767 24.2907776,60.5558216 C24.2907776,60.5558216 23.7949441,60.331876 21.9119378,58.2917603 C20.3929297,56.64699 19.7702358,54.5272214 19.2466258,52.3966099 C17.6272901,45.8054349 17.6169257,35.7282976 19.0331189,30.3452613 C19.0331189,30.3452613 21.1176093,21.3132037 22.9516956,20.6000807 C22.9516956,20.6000807 18.7831293,7.76428331 19.6583002,4.47682787 C19.6583002,4.47682787 22.1179823,10.7356292 30.330742,9.98330531 C30.330742,9.98330531 26.8288147,5.14991592 27.6206557,0 C27.6206557,0 33.8741271,4.63488263 40.5023755,3.40672631 C40.5023755,3.40672631 44.7157161,2.95174548 47.4444584,1.90916796 C48.6002975,1.46794915 49.7897174,1.10721733 51.0147908,0.892863389 C55.6800198,0.0746485505 65.6534857,-0.821551086 70.4758391,5.1899509 C70.4758391,5.1899509 74.2903571,9.1709289 74.9155384,13.1823502 C74.9155384,13.1823502 85.1709163,20.401991 85.6713101,32.9996637 C85.6713101,32.9996637 86.5717702,42.1422345 85.3918856,50.1963543 C84.9806258,53.0054752 84.0930175,55.7316069 82.7837851,58.2796664 C82.2448357,59.3284994 81.5719781,60.3097733 80.780137,61.2022197" id="Fill-30" fill="#4A4342" mask="url(#mask-8)"></path>
                <path d="M22,10 C22,10 30.1782707,39.208014 60,28.7313127 C60,28.7313127 30.5914972,30.6359016 22,10" id="Fill-31" fill="#666261" mask="url(#mask-8)"></path>
                <path d="M30,4 C30,4 39.5132122,29.2993437 66,18.1718487 C66,18.1718487 39.2890361,21.6981734 30,4" id="Fill-32" fill="#666261" mask="url(#mask-8)"></path>
                <path d="M38.7566827,47.947791 C38.090272,48.581567 37.8016412,49.5543116 38.1463212,50.370701 C38.3943495,50.9571327 38.9389526,51.4198329 39.570498,51.6836079 C40.2024848,51.9477807 40.9147939,52.0261572 41.6103324,51.9927378 C42.4219411,51.9537484 43.2428178,51.7576081 43.8955471,51.321166 C44.5487178,50.8851218 45.0121159,50.1860983 44.9997586,49.4532576 C44.9874014,48.7144491 44.4922274,48.0229848 43.8143421,47.6072309 C42.6735001,46.9062182 40.9456871,46.8063577 39.7020148,47.3378861 C39.3498323,47.4882736 39.0254536,47.6923709 38.7566827,47.947791" id="Fill-33" fill="#3E2C38" mask="url(#mask-8)"></path>
                <path d="M41.9162332,47.0015344 C41.6019516,46.9846201 41.2610981,47.1072492 41.1002923,47.383987 C40.9262004,47.6832773 41.0040836,48.0694887 41.1419827,48.3880425 C41.3834206,48.9457467 41.7952852,49.4240474 42.3042748,49.7393124 C42.6561235,49.9568499 43.1014321,50.0963934 43.4743552,49.9197323 C43.8000902,49.7656236 43.9934237,49.3906885 43.9998377,49.0232709 C44.0057934,48.6558533 43.8472782,48.3011215 43.6227914,48.0140471 C43.211843,47.4901717 42.5896938,47.0372425 41.9162332,47.0015344" id="Fill-34" fill="#FFFFFF" mask="url(#mask-8)"></path>
                <path d="M61.7566827,47.947791 C61.090272,48.581567 60.8016412,49.5543116 61.1463212,50.370701 C61.3943495,50.9571327 61.9389526,51.4198329 62.570498,51.6836079 C63.2024848,51.9477807 63.9147939,52.0261572 64.6103324,51.9927378 C65.4219411,51.9537484 66.2423765,51.7576081 66.8955471,51.321166 C67.5487178,50.8851218 68.0121159,50.1860983 67.9997586,49.4532576 C67.9874014,48.7144491 67.491786,48.0229848 66.8143421,47.6072309 C65.6735001,46.9062182 63.9456871,46.8063577 62.7020148,47.3378861 C62.3498323,47.4882736 62.0254536,47.6923709 61.7566827,47.947791" id="Fill-35" fill="#3E2C38" mask="url(#mask-8)"></path>
                <path d="M64.9162989,47.0015344 C64.6020272,46.9846201 64.2611845,47.1072492 64.0999255,47.383987 C63.9262973,47.6832773 64.004178,48.0694887 64.1420728,48.3880425 C64.383503,48.9457467 64.7953547,49.4240474 65.3043282,49.7393124 C65.6561659,49.9568499 66.1014605,50.0963934 66.4743718,49.9197323 C66.7996384,49.7656236 66.993424,49.3906885 66.9998377,49.0232709 C67.0057932,48.6558533 66.847283,48.3011215 66.6228033,48.0140471 C66.2118679,47.4901717 65.5897382,47.0372425 64.9162989,47.0015344" id="Fill-36" fill="#FFFFFF" mask="url(#mask-8)"></path>
                <path d="M74.8921437,55.1519884 C72.9913052,57.3629497 70.538143,58.3707446 67.8469103,58.4415191 C65.6136011,58.4194816 63.7044819,57.8448096 62.0023807,56.6068917 C57.6566608,53.4584861 57.069144,47.3964599 60.7325329,43.541157 C64.4514025,39.6277936 70.8449436,39.6193176 74.572508,43.5233574 C77.6827451,46.773051 77.8338681,51.7382845 74.8921437,55.1519884 M43.9980333,56.6068917 C42.2959321,57.8448096 40.386813,58.4194816 38.1535038,58.4415191 C35.462271,58.3707446 33.0086948,57.3629497 31.1078563,55.1519884 C28.1661319,51.7382845 28.317669,46.773051 31.427906,43.5233574 C35.1554704,39.6193176 41.5485975,39.6277936 45.2678812,43.541157 C48.9312701,47.3964599 48.3433392,53.4584861 43.9980333,56.6068917 M80.8273471,44.0891296 C80.6849187,43.4530067 80.3781182,43.0546353 79.6655626,42.9613994 C78.641652,42.829174 77.71711,42.3646899 76.8534313,41.790018 C74.814719,40.4368266 72.6157748,39.4998062 70.1969775,39.1459337 C68.0195632,38.8276604 65.8856226,39.0620214 63.7475417,39.5396433 C61.4409481,40.0477787 59.6092537,41.3522332 57.9117069,42.9219861 C57.5444571,43.262297 57.1904565,43.6204075 56.8319015,43.9696181 C56.2054653,44.5756513 55.7301522,44.6243882 55.0043474,44.1421045 C54.3435462,43.7043197 53.6740503,43.4703825 53.000414,43.4127458 C52.3263637,43.4703825 51.6564538,43.7043197 50.9956526,44.1421045 C50.2702619,44.6243882 49.7949488,44.5756513 49.1685126,43.9696181 C48.8099576,43.6204075 48.4559569,43.262297 48.0887072,42.9219861 C46.3911603,41.3522332 44.5594659,40.0477787 42.2528724,39.5396433 C40.1143774,39.0620214 37.9808508,38.8276604 35.8034365,39.1459337 C33.3846393,39.4998062 31.1856951,40.4368266 29.1469827,41.790018 C28.28289,42.3646899 27.358348,42.829174 26.3348515,42.9613994 C25.6222958,43.0546353 25.3154953,43.4530067 25.173067,44.0891296 C25.103923,44.4163027 25.0604492,44.7481376 25,45.0795487 L25,46.3352662 C25.173067,46.5391137 25.3068005,46.8086501 25.5225132,46.9408756 C26.3563813,47.4587584 26.8056102,48.2012549 26.9956526,49.1653985 C27.17286,50.0672435 27.3715971,50.9737504 27.6394783,51.8535579 C28.3955077,54.3471934 29.6740503,56.4433051 31.88997,57.8888848 C34.6801573,59.7107983 37.6351309,60.5198313 40.9093262,59.6484998 C43.2461443,59.0293289 45.3544147,57.972797 47.034572,56.1470693 C48.4257323,54.6391912 49.2939654,52.8304154 49.9030121,50.8762765 C50.0930545,50.279567 50.2400373,49.6735339 50.4296657,49.0768244 C50.6805714,48.289829 51.207639,47.7723699 52.0150088,47.6748961 C52.3391988,47.6397207 52.6716696,47.6176832 53.000414,47.6087834 C53.3283304,47.6176832 53.6608012,47.6397207 53.9849912,47.6748961 C54.7927751,47.7723699 55.3198427,48.289829 55.5703343,49.0768244 C55.7603768,49.6735339 55.9073595,50.279567 56.0974019,50.8762765 C56.7064486,52.8304154 57.5746817,54.6391912 58.965842,56.1470693 C60.6459994,57.972797 62.7538557,59.0293289 65.0906738,59.6484998 C68.3652831,60.5198313 71.3198427,59.7107983 74.1104441,57.8888848 C76.3263637,56.4433051 77.6049063,54.3471934 78.3609357,51.8535579 C78.6288169,50.9737504 78.8275541,50.0672435 79.0047614,49.1653985 C79.1943898,48.2012549 79.6436187,47.4587584 80.4774868,46.9408756 C80.6936135,46.8086501 80.8273471,46.5391137 81,46.3352662 L81,45.0795487 C80.9395508,44.7481376 80.896491,44.4163027 80.8273471,44.0891296" id="Fill-37" fill="#478778" mask="url(#mask-8)"></path>
                <path d="M44.2588397,56.2518188 C42.5277399,57.431407 40.5860952,57.9790008 38.3147373,58 C35.5776542,57.9325603 33.0822766,56.972252 31.1490537,54.8654695 C28.1572113,51.6130207 28.3109091,46.8817454 31.4745561,43.7847711 C35.2656267,40.0646868 41.767673,40.0731672 45.5503219,43.801732 C49.2761236,47.4757797 48.6781762,53.2517638 44.2588397,56.2518188" id="Fill-38" fill="#FFFFFF" opacity="0.6" mask="url(#mask-8)"></path>
                <path d="M74.8508728,54.8654974 C72.9176258,56.9722611 70.4226382,57.9325609 67.685521,58 C65.4141349,57.979001 63.472466,57.4314121 61.7413447,56.2518344 C57.321532,53.2518061 56.7239983,47.4754694 60.4498464,43.8018583 C64.2321213,40.0729228 70.7346696,40.0648463 74.5257875,43.7848975 C77.6890528,46.8814404 77.8427524,51.6126736 74.8508728,54.8654974" id="Fill-39" fill="#FFFFFF" opacity="0.596637228" mask="url(#mask-8)"></path>
                <path d="M31,38 C31,38 31.9352673,35.4573304 36.4127415,35.0664086 C36.4127415,35.0664086 45.4078725,34.3814565 47,37.4111006 L39.9496182,36.8121346 C39.4067449,36.7659957 38.8589514,36.752993 38.313618,36.778579 C36.8063656,36.8477873 33.7164164,37.0986148 31,38" id="Fill-40" fill="#4A4342" mask="url(#mask-8)"></path>
                <path d="M73,38 C73,38 72.0647327,35.4573304 67.5872585,35.0664086 C67.5872585,35.0664086 58.5921275,34.3814565 57,37.4111006 L64.0503818,36.8121346 C64.5932551,36.7659957 65.1410486,36.752993 65.686382,36.778579 C67.1936344,36.8477873 70.2835836,37.0986148 73,38" id="Fill-41" fill="#4A4342" mask="url(#mask-8)"></path>
                <path d="M38.411214,150 L31.588786,150 C31.2650577,150 31,149.74998 31,149.444226 L31,145.555381 C31,145.249627 31.2650577,145 31.588786,145 L38.411214,145 C38.7349423,145 39,145.249627 39,145.555381 L39,149.444226 C39,149.74998 38.7349423,150 38.411214,150" id="Fill-42" fill="#77512F" mask="url(#mask-8)"></path>
                <path d="M72.411214,150 L65.588786,150 C65.2650577,150 65,149.74998 65,149.444226 L65,145.555381 C65,145.249627 65.2650577,145 65.588786,145 L72.411214,145 C72.7349423,145 73,145.249627 73,145.555381 L73,149.444226 C73,149.74998 72.7349423,150 72.411214,150" id="Fill-43" fill="#77512F" mask="url(#mask-8)"></path>
                <path d="M160.977804,136 L138.022196,136 C135.800965,136 134,134.181024 134,131.937578 L134,82.062422 C134,79.8189763 135.800965,78 138.022196,78 L160.977804,78 C163.199035,78 165,79.8189763 165,82.062422 L165,131.937578 C165,134.181024 163.199035,136 160.977804,136" id="Fill-44" fill="#4A4342" mask="url(#mask-8)"></path>
                <polygon id="Fill-45" fill="#FFFFFF" mask="url(#mask-8)" points="136 127 163 127 163 87 136 87"></polygon>
                <path d="M151.862844,133 L147.137156,133 C146.50942,133 146,132.387745 146,131.632186 L146,131.367814 C146,130.612255 146.50942,130 147.137156,130 L151.862844,130 C152.490991,130 153,130.612255 153,131.367814 L153,131.632186 C153,132.387745 152.490991,133 151.862844,133" id="Fill-46" fill="#666261" mask="url(#mask-8)"></path>
                <path d="M151.862844,84 L147.137156,84 C146.50942,84 146,83.387745 146,82.6316916 L146,82.36732 C146,81.6117608 146.50942,81 147.137156,81 L151.862844,81 C152.490991,81 153,81.6117608 153,82.36732 L153,82.6316916 C153,83.387745 152.490991,84 151.862844,84" id="Fill-47" fill="#666261" mask="url(#mask-8)"></path>
                <path d="M144.5,123 C146.432984,123 148,121.432806 148,119.5 C148,117.566796 146.432984,116 144.5,116 C142.567016,116 141,117.566796 141,119.5 C141,121.432806 142.567016,123 144.5,123" id="Fill-48" fill="#A2C73B" mask="url(#mask-8)"></path>
                <path d="M153.499801,123 C155.432895,123 157,121.432806 157,119.5 C157,117.566796 155.432895,116 153.499801,116 C151.566706,116 150,117.566796 150,119.5 C150,121.432806 151.566706,123 153.499801,123" id="Fill-49" fill="#E25E62" mask="url(#mask-8)"></path>
                <path d="M149,114 C142.372587,114 137,108.627413 137,101.999583 C137,95.3721705 142.372587,90 149,90 C155.627413,90 161,95.3721705 161,101.999583 C161,108.627413 155.627413,114 149,114" id="Fill-50" fill="#F5A623" mask="url(#mask-8)"></path>
                <path d="M145.364047,120.501881 C145.219824,120.359428 145.038882,120.359428 144.895544,120.501881 C144.785829,120.610711 144.676556,120.719099 144.56861,120.829699 C144.538969,120.860667 144.514195,120.866418 144.47836,120.846067 C144.407576,120.807579 144.331925,120.776611 144.263796,120.73414 C143.946152,120.534176 143.679827,120.277142 143.444469,119.988255 C143.327233,119.844917 143.223269,119.690962 143.150715,119.517541 C143.136116,119.482592 143.13877,119.46003 143.167084,119.431274 C143.276799,119.32554 143.383418,119.21671 143.491364,119.108322 C143.641338,118.957021 143.641338,118.780061 143.490479,118.628318 C143.404653,118.541608 143.31927,118.45711 143.233444,118.370399 C143.144964,118.281919 143.057369,118.192555 142.968004,118.105402 C142.823781,117.964719 142.643281,117.964719 142.499501,118.106287 C142.388901,118.214675 142.283167,118.326159 142.170797,118.43322 C142.066833,118.531433 142.014187,118.652208 142.003127,118.793333 C141.985874,119.022496 142.042059,119.239272 142.121248,119.449412 C142.283167,119.88606 142.530027,120.273602 142.82909,120.629292 C143.233444,121.109738 143.715661,121.490201 144.280607,121.764489 C144.534545,121.887918 144.797773,121.983034 145.084007,121.998518 C145.281318,122.009578 145.452527,121.96003 145.589671,121.805632 C145.68346,121.701226 145.789636,121.605225 145.888734,121.505243 C146.036496,121.355712 146.036938,121.17477 145.890946,121.027451 C145.715755,120.851819 145.540122,120.677071 145.364047,120.501881" id="Fill-51" fill="#FFFFFF" mask="url(#mask-8)"></path>
                <path d="M144.746116,119 L145,118.955405 C144.96,118.71723 144.849917,118.501351 144.682645,118.330068 C144.505785,118.148986 144.282314,118.035473 144.036033,118 L144,118.260811 C144.190744,118.288514 144.364298,118.376014 144.501157,118.515878 C144.630413,118.648311 144.715041,118.815541 144.746116,119" id="Fill-52" fill="#FFFFFF" mask="url(#mask-8)"></path>
                <path d="M145.355829,117.671088 C144.997373,117.30342 144.543948,117.07171 144.043645,117 L144,117.32 C144.432411,117.382591 144.824409,117.583212 145.133966,117.899896 C145.427359,118.200829 145.620125,118.581347 145.689634,119 L146,118.945285 C145.918367,118.460725 145.695696,118.020933 145.355829,117.671088" id="Fill-53" fill="#FFFFFF" mask="url(#mask-8)"></path>
                <path d="M153.126585,119.998449 C153.337949,119.997052 153.471031,119.863016 153.471491,119.649861 C153.471952,119.487436 153.472873,119.325475 153.471031,119.163049 C153.47011,119.118371 153.483924,119.095566 153.524908,119.083465 C153.605954,119.059264 153.684237,119.026686 153.765744,119.007139 C154.146569,118.920109 154.531538,118.913128 154.917889,118.952687 C155.109913,118.972699 155.299635,119.009466 155.480147,119.083931 C155.516986,119.098824 155.531722,119.118371 155.531722,119.160722 C155.529419,119.321287 155.53034,119.481385 155.531261,119.642415 C155.531722,119.866739 155.66204,119.997983 155.884917,119.998449 C156.011552,119.999379 156.137265,119.998449 156.2639,119.999379 C156.393758,119.999379 156.524077,120.000776 156.654395,119.999379 C156.864379,119.996587 156.997,119.862085 156.998381,119.649861 C156.999762,119.486505 156.995618,119.325475 156.999762,119.162119 C157.003907,119.011793 156.953713,118.882876 156.857932,118.769783 C156.702286,118.586414 156.501513,118.466806 156.288306,118.369071 C155.847617,118.165224 155.380681,118.060043 154.899009,118.018157 C154.247416,117.961378 153.612401,118.037238 152.995345,118.253186 C152.717209,118.350455 152.453809,118.476114 152.231393,118.677168 C152.07805,118.815858 151.988715,118.980146 152.001148,119.196093 C152.008976,119.344557 152.001608,119.494417 152.002529,119.64288 C152.00345,119.863482 152.135611,119.998449 152.352041,119.999379 C152.610376,120.00031 152.86825,119.999379 153.126585,119.998449" id="Fill-54" fill="#FFFFFF" mask="url(#mask-8)"></path>
                <path d="M143.165005,101.827213 C143.165005,101.827213 141.409773,112.92945 149.348736,112.986702 C149.202968,112.873452 157.024973,114.490291 155.886782,101.753663 C153.843884,98.8601526 151.462582,99.0306541 149.69918,99.0018193 C144.445524,98.9169864 143.165005,101.827213 143.165005,101.827213" id="Fill-55" fill="#F5DCBF" mask="url(#mask-8)"></path>
                <path d="M144.232845,103.101452 C144.363865,102.929519 144.467482,102.736629 144.535133,102.524721 C144.869105,101.476438 144.202445,100.380806 143.04553,100.078081 C141.889043,99.7753556 140.680748,100.379642 140.346775,101.427925 C140.148961,102.048123 140.301817,102.684622 140.698731,103.163549 C140.425558,103.420089 140.215327,103.739115 140.098865,104.10549 C139.715653,105.307465 140.480364,106.563386 141.806406,106.910356 C143.132876,107.257714 144.518434,106.564939 144.901218,105.362576 C145.167539,104.526977 144.878953,103.665374 144.232845,103.101452" id="Fill-56" fill="#BEC0C0" mask="url(#mask-8)"></path>
                <path d="M158.481317,101.340239 C158.093827,100.30748 156.855573,99.7544247 155.715796,100.105663 C154.57602,100.45729 153.966312,101.579314 154.353802,102.612072 C154.432156,102.820875 154.54562,103.009884 154.685202,103.175607 C154.069072,103.766697 153.824589,104.639166 154.133725,105.462734 C154.577732,106.647631 155.997529,107.281413 157.30429,106.878944 C158.611479,106.475699 159.310674,105.188729 158.866238,104.00422 C158.730938,103.643278 158.504438,103.333955 158.218852,103.089058 C158.590499,102.593443 158.710386,101.951122 158.481317,101.340239" id="Fill-57" fill="#BEC0C0" mask="url(#mask-8)"></path>
                <path d="M156.101757,95.9897528 C156.103449,95.9512435 156.104718,95.9127343 156.104718,95.8738239 C156.104718,94.3699584 154.81948,93.1509007 153.233028,93.1509007 C152.800244,93.1509007 152.390305,93.241959 152.021825,93.4048209 C151.805221,92.0433593 150.565673,91 149.069331,91 C147.735019,91 146.605465,91.8295529 146.222178,92.9744001 C145.84016,92.7746335 145.401453,92.6607104 144.933979,92.6607104 C143.459213,92.6607104 142.263662,93.7943257 142.263662,95.1930931 C142.263662,95.472285 142.31189,95.7410473 142.400309,95.9921596 C141.558854,96.4995989 141,97.3905259 141,98.4058056 C141,99.985085 142.349965,101.264714 144.015106,101.264714 C145.251692,101.264714 146.313981,100.558712 146.77934,99.5486471 C147.327618,100.259062 148.213493,100.720371 149.212746,100.720371 C150.115543,100.720371 150.924846,100.343702 151.477777,99.7476114 C151.888563,101.050106 153.161532,102 154.668873,102 C156.508735,102 158,100.585989 158,98.8414412 C158,97.5838743 157.224542,96.4979943 156.101757,95.9897528" id="Fill-58" fill="#E9EAE8" mask="url(#mask-8)"></path>
                <path d="M148,103.500189 C148,103.775973 147.775777,104 147.5,104 C147.224223,104 147,103.775973 147,103.500189 C147,103.224027 147.224223,103 147.5,103 C147.775777,103 148,103.224027 148,103.500189" id="Fill-59" fill="#4C1B0B" mask="url(#mask-8)"></path>
                <path d="M153,103.500189 C153,103.775973 152.776596,104 152.5,104 C152.224223,104 152,103.775973 152,103.500189 C152,103.224027 152.224223,103 152.5,103 C152.776596,103 153,103.224027 153,103.500189" id="Fill-60" fill="#4C1B0B" mask="url(#mask-8)"></path>
                <path d="M149.486056,111 L149.476074,111 C148.814986,110.985506 148.338173,109.482825 148.236437,109.135441 L148.067902,109.295341 C148.049474,109.313107 148.022985,109.308899 148.00878,109.286457 C147.994576,109.264015 147.998031,109.231755 148.016074,109.214456 L148.231063,109.010607 C148.242196,109.000321 148.2564,108.997516 148.269453,109.002192 C148.282506,109.006867 148.292872,109.019491 148.297095,109.03492 C148.302085,109.053621 148.805388,110.882179 149.477994,110.897141 C149.480681,110.897608 149.483369,110.897608 149.486056,110.897608 C149.868812,110.897608 150.24197,110.30944 150.595548,109.149467 C150.596316,109.147597 150.5967,109.146195 150.597468,109.144324 C150.60745,109.120012 150.631636,109.109726 150.651983,109.120012 C150.661581,109.125155 150.668875,109.134506 150.673098,109.144792 C150.706498,109.17378 150.850463,109.250457 150.973313,109.308899 C150.994812,109.319185 151.005562,109.349108 150.997116,109.37529 C150.98867,109.40194 150.9641,109.414564 150.942217,109.404278 C150.785583,109.329471 150.700739,109.281782 150.65467,109.250457 C150.293029,110.411364 149.899908,111 149.486056,111" id="Fill-61" fill="#4C1B0B" mask="url(#mask-8)"></path>
                <path d="M151.090921,104.605748 L154.616945,104.605748 L154.616945,102.393803 L151.090921,102.393803 L151.090921,104.605748 Z M145.383055,104.605748 L148.909079,104.605748 L148.909079,102.393803 L145.383055,102.393803 L145.383055,104.605748 Z M150.708302,102 L150.708302,103.01392 C150.423411,102.832061 150.135465,102.752133 149.848829,102.779524 C149.62458,102.801078 149.436979,102.885945 149.291698,102.980242 L149.291698,102 L145,102 L145,105 L149.291698,105 L149.291698,103.483161 C149.3759,103.394252 149.588805,103.200269 149.884604,103.17198 C150.148117,103.146834 150.425156,103.258195 150.708302,103.500225 L150.708302,105 L155,105 L155,102 L150.708302,102 Z" id="Fill-62" fill="#3D0739" mask="url(#mask-8)"></path>
                <path d="M153,107.500191 C153,107.776331 152.552283,108 151.99979,108 C151.447717,108 151,107.776331 151,107.500191 C151,107.224052 151.447717,107 151.99979,107 C152.552283,107 153,107.224052 153,107.500191" id="Fill-63" fill="#F09F63" mask="url(#mask-8)"></path>
                <path d="M147,107.500191 C147,107.776331 146.552283,108 145.99979,108 C145.447717,108 145,107.776331 145,107.500191 C145,107.224052 145.447717,107 145.99979,107 C146.552283,107 147,107.224052 147,107.500191" id="Fill-64" fill="#F09F63" mask="url(#mask-8)"></path>
                <path d="M149.220039,107 C149.141066,107 149.074048,106.993042 149.029853,106.979996 C149.008842,106.973472 148.9958,106.947815 149.001234,106.922157 C149.006306,106.896499 149.028042,106.881278 149.049415,106.887367 C149.249019,106.94738 149.854716,106.850402 149.9163,106.693411 C149.932964,106.651228 149.889855,106.601217 149.850369,106.566862 C149.462028,106.222873 149.399719,104.137634 149.397183,104.049354 C149.396459,104.022826 149.413847,104.001083 149.435583,104.000213 C149.455145,103.997604 149.476156,104.019347 149.476518,104.045875 C149.477242,104.067184 149.539913,106.173732 149.897825,106.489888 C150.011936,106.591215 150.010125,106.678625 149.98839,106.73429 C149.916662,106.916938 149.496442,107 149.220039,107" id="Fill-65" fill="#4C1B0B" mask="url(#mask-8)"></path>
            </g>
        </g>
    </g>
</svg>