<?xml version="1.0" encoding="UTF-8"?>
<svg width="150px" height="69px" viewBox="0 0 150 69" version="1.1" xmlns="http://www.w3.org/2000/svg" xmlns:xlink="http://www.w3.org/1999/xlink">
    <!-- Generator: Sketch 49.2 (51160) - http://www.bohemiancoding.com/sketch -->
    <title>Page 1</title>
    <desc>Created with Sketch.</desc>
    <defs>
        <polygon id="path-1" points="0 0.233173804 91.3343771 0.233173804 91.3343771 18.1085761 0 18.1085761"></polygon>
        <polygon id="path-3" points="0 68.4102564 149.977824 68.4102564 149.977824 0.170019608 0 0.170019608"></polygon>
    </defs>
    <g id="Page-1" stroke="none" stroke-width="1" fill="none" fill-rule="evenodd">
        <g id="Homepage-Desktop-Copy" transform="translate(-38.000000, -12.000000)">
            <g id="Page-1" transform="translate(38.000000, 12.000000)">
                <polygon id="Fill-1" fill="#FFFFFF" points="16 28.9894126 16 39.8461549 16 53 20.783212 51.7656621 23.3295565 51.271927 23.3295565 42.1195584 23.3295565 30.142778 42.8050127 9.16520565 65 29.221715 65 20.431995 42.3645165 0"></polygon>
                <g id="Group-22">
                    <g id="Group-4" transform="translate(0.000000, 50.301659)">
                        <mask id="mask-2" fill="white">
                            <use xlink:href="#path-1"></use>
                        </mask>
                        <g id="Clip-3"></g>
                        <path d="M0.683546512,12.3932222 C1.17366279,11.6402063 1.51826412,11.235278 1.94085548,10.7254707 C2.34450997,10.2508745 2.75638704,9.80469879 3.17474252,9.38015279 C4.01643688,8.53307285 4.88553987,7.76949367 5.77931063,7.06904306 C7.56759967,5.67166297 9.44932724,4.53660603 11.3749086,3.61256456 C15.234294,1.77102081 19.2618688,0.796677677 23.2560548,0.422684842 C31.2526495,-0.359002941 39.1587957,1.38319502 46.5421844,3.70964676 C53.9883638,5.84268861 61.4146096,8.08362753 68.9148588,9.68875347 C72.6628654,10.4581173 76.4482475,11.0569586 80.244593,10.9025325 C84.0396927,10.7792934 87.8123671,9.64901516 91.3343771,7.75390015 C87.9160216,9.90731418 84.1550581,11.3487082 80.2849585,11.765709 C76.4183472,12.2166633 72.5362874,11.8964933 68.7090449,11.4042916 C61.0500748,10.3549989 53.5029817,8.67240845 45.9509053,7.10425422 C42.1525664,6.28307964 38.4830482,5.4875589 34.746005,5.20209698 C31.0249086,4.8962629 27.2990781,4.97272142 23.666686,5.59042579 C20.0390282,6.20460905 16.4990781,7.36179872 13.2718355,9.1925276 C11.6619518,10.1082693 10.1270681,11.1882459 8.72997508,12.434721 C8.03304817,13.0587131 7.36950997,13.7242041 6.75630399,14.4254092 C6.45107143,14.7739997 6.15829734,15.1341596 5.88620432,15.4953255 C5.63603821,15.8278195 5.32333056,16.2885827 5.22715116,16.4716807 C4.38819767,18.0999454 2.63678571,18.5971773 1.31419435,17.5823413 C-0.00740033223,16.5682599 -0.39660299,14.4266667 0.442350498,12.798402 C0.499410299,12.6902535 0.559460133,12.5863805 0.621004983,12.4872863 L0.683546512,12.3932222 Z" id="Fill-2" fill="#FFFFFF" mask="url(#mask-2)"></path>
                    </g>
                    <path d="M39.4574502,22.7278992 C40.7092774,22.7278992 41.8362708,22.9117518 42.8389286,23.280463 C43.8413372,23.6491741 44.6962375,24.1609935 45.4033804,24.8161726 C46.1100249,25.4716032 46.6522176,26.252285 47.0287126,27.1587209 C47.4054568,28.0656598 47.5940781,29.0626387 47.5940781,30.1509151 C47.5940781,31.087029 47.4635133,31.952469 47.2026329,32.7479897 C46.9420017,33.5440135 46.5854402,34.3015565 46.1334468,35.0206187 C45.6814535,35.7399324 45.1569518,36.4366104 44.560191,37.1091436 C43.9631811,37.7816768 43.3285465,38.4632643 42.6565365,39.1536545 L37.7015532,44.277633 C38.3386794,44.0905109 38.9678322,43.9416179 39.5877658,43.8301998 C40.2076993,43.7190331 40.7902575,43.6634498 41.335191,43.6634498 L46.0639286,43.6634498 C46.6434967,43.6634498 47.1012209,43.8244151 47.4375997,44.1458427 C47.7734801,44.4677733 47.9416694,44.8918163 47.9416694,45.4182232 L47.9416694,48.5769158 L30.1387625,48.5769158 L30.1387625,46.822394 C30.1387625,46.4828578 30.2085299,46.1204343 30.3475664,45.7343691 C30.486603,45.3480523 30.7297924,44.9971983 31.0776329,44.6810523 L38.3795432,37.258288 C39.0054568,36.6267507 39.5501412,36.0238853 40.0138455,35.4506979 C40.4773007,34.877762 40.8597757,34.3128744 41.1612708,33.7572925 C41.4625166,33.2017107 41.6885133,32.6461289 41.8392608,32.090044 C41.9897591,31.5344622 42.0652575,30.9466873 42.0652575,30.3264679 C42.0652575,29.3086138 41.8245598,28.5276805 41.343912,27.9836681 C40.8627658,27.4396557 40.1297093,27.1675237 39.1444934,27.1675237 C38.3446595,27.1675237 37.6694103,27.3813057 37.118995,27.8081153 C36.5685797,28.2349249 36.1890947,28.7646014 35.9805399,29.3963902 C35.7371013,30.0397484 35.4181645,30.467061 35.0242276,30.6773219 C34.6300415,30.8878344 34.0679153,30.9348664 33.3378488,30.8176636 L30.486603,30.3091138 C30.6717359,29.0334637 31.0282973,27.9220486 31.555789,26.9746168 C32.0830316,26.0266821 32.738098,25.2371975 33.5202409,24.6054087 C34.3026329,23.9736198 35.1981478,23.5030478 36.2062874,23.1929381 C37.2149252,22.8830799 38.298314,22.7278992 39.4574502,22.7278992" id="Fill-5" fill="#FFFFFF"></path>
                    <polygon id="Fill-7" fill="#FFFFFF" points="64.202093 48.0570482 60.7710299 48.0570482 60.7710299 35.7726285 55.2509302 35.7726285 55.2509302 48.0570482 51.8198671 48.0570482 51.8198671 33.2157952 64.202093 33.2157952"></polygon>
                    <path d="M71.1953821,45.8772258 C71.9152326,45.8772258 72.4449668,45.6209388 72.7848339,45.1081134 C73.1244518,44.5955395 73.2943854,43.8163668 73.2943854,42.7703438 C73.2943854,41.7248238 73.1244518,40.9471602 72.7848339,40.4378559 C72.4449668,39.9285516 71.9152326,39.6740252 71.1953821,39.6740252 C70.4553488,39.6740252 69.9136545,39.9285516 69.5705482,40.4378559 C69.227691,40.9471602 69.0560133,41.7248238 69.0560133,42.7703438 C69.0560133,43.8163668 69.227691,44.5955395 69.5705482,45.1081134 C69.9136545,45.6209388 70.4553488,45.8772258 71.1953821,45.8772258 M71.1953821,37.3312254 C71.9892359,37.3312254 72.7123256,37.4569796 73.3651495,37.7079848 C74.0174751,37.9594931 74.577608,38.31915 75.045299,38.78771 C75.5127409,39.2562699 75.8760299,39.8251817 76.1351661,40.4939422 C76.3940532,41.1629543 76.5236213,41.9147126 76.5236213,42.7499716 C76.5236213,43.5922729 76.3940532,44.3510735 76.1351661,45.0266247 C75.8760299,45.7024275 75.5127409,46.2763695 75.045299,46.748199 C74.577608,47.2202801 74.0174751,47.5834581 73.3651495,47.8379845 C72.7123256,48.0927624 71.9892359,48.2200256 71.1953821,48.2200256 C70.3948007,48.2200256 69.6664784,48.0927624 69.0106645,47.8379845 C68.3546013,47.5834581 67.789485,47.2202801 67.3153156,46.748199 C66.840897,46.2763695 66.4741196,45.7024275 66.2152326,45.0266247 C65.9560963,44.3510735 65.8267774,43.5922729 65.8267774,42.7499716 C65.8267774,41.9147126 65.9560963,41.1629543 66.2152326,40.4939422 C66.4741196,39.8251817 66.840897,39.2562699 67.3153156,38.78771 C67.789485,38.31915 68.3546013,37.9594931 69.0106645,37.7079848 C69.6664784,37.4569796 70.3948007,37.3312254 71.1953821,37.3312254" id="Fill-9" fill="#FFFFFF"></path>
                    <path d="M84.2534801,38.2884911 C84.4082143,38.0510673 84.6150249,37.8591665 84.8741611,37.7130402 C85.1330482,37.5671653 85.4038953,37.4942279 85.6864535,37.4942279 L88.1589618,37.4942279 L85.9587957,41.3340051 C85.7906063,41.619467 85.6191777,41.8503516 85.4442608,42.0269104 C85.2693439,42.2034693 85.0573007,42.3392837 84.8086296,42.4341024 C85.1514867,42.5497962 85.4308056,42.7127736 85.646088,42.923286 C85.8613704,43.1337985 86.0529817,43.3986367 86.2211711,43.7178007 L88.4111213,48.0570733 L86.2515698,48.0570733 C85.9757392,48.0570733 85.7352907,48.0351921 85.5299751,47.9906752 C85.3246595,47.9466612 85.1415199,47.8805145 84.9800581,47.7922351 C84.8185963,47.7042072 84.6773173,47.5953041 84.5562209,47.4662804 C84.4351246,47.3375081 84.323995,47.1878607 84.2230814,47.0180926 L83.1132807,44.3596499 C83.0123671,44.121723 82.8658555,43.9469248 82.6742442,43.8350036 C82.4823837,43.7228309 82.2621179,43.666996 82.0131977,43.666996 L81.2260714,43.666996 L81.2260714,48.0570733 L78.0977492,48.0570733 L78.0977492,37.4942279 L81.2260714,37.4942279 L81.2260714,41.6805835 L81.8719186,41.6805835 C82.1544767,41.6805835 82.3645266,41.634809 82.5025664,41.5430085 C82.6403571,41.451208 82.7631977,41.2970334 82.8708389,41.0797302 L84.2534801,38.2884911 Z" id="Fill-11" fill="#FFFFFF"></path>
                    <path d="M93.9914701,45.8772258 C94.7113206,45.8772258 95.2410548,45.6209388 95.5809219,45.1081134 C95.9205399,44.5955395 96.0904734,43.8163668 96.0904734,42.7703438 C96.0904734,41.7248238 95.9205399,40.9471602 95.5809219,40.4378559 C95.2410548,39.9285516 94.7113206,39.6740252 93.9914701,39.6740252 C93.2514369,39.6740252 92.7097425,39.9285516 92.3666362,40.4378559 C92.0237791,40.9471602 91.8521013,41.7248238 91.8521013,42.7703438 C91.8521013,43.8163668 92.0237791,44.5955395 92.3666362,45.1081134 C92.7097425,45.6209388 93.2514369,45.8772258 93.9914701,45.8772258 M93.9914701,37.3312254 C94.7853239,37.3312254 95.5084136,37.4569796 96.1612375,37.7079848 C96.8135631,37.9594931 97.373696,38.31915 97.841387,38.78771 C98.3088289,39.2562699 98.6721179,39.8251817 98.9312542,40.4939422 C99.1901412,41.1629543 99.3197093,41.9147126 99.3197093,42.7499716 C99.3197093,43.5922729 99.1901412,44.3510735 98.9312542,45.0266247 C98.6721179,45.7024275 98.3088289,46.2763695 97.841387,46.748199 C97.373696,47.2202801 96.8135631,47.5834581 96.1612375,47.8379845 C95.5084136,48.0927624 94.7853239,48.2200256 93.9914701,48.2200256 C93.1908887,48.2200256 92.4625664,48.0927624 91.8067525,47.8379845 C91.1506894,47.5834581 90.5855731,47.2202801 90.1114037,46.748199 C89.636985,46.2763695 89.2702076,45.7024275 89.0113206,45.0266247 C88.7521844,44.3510735 88.6228654,43.5922729 88.6228654,42.7499716 C88.6228654,41.9147126 88.7521844,41.1629543 89.0113206,40.4939422 C89.2702076,39.8251817 89.636985,39.2562699 90.1114037,38.78771 C90.5855731,38.31915 91.1506894,37.9594931 91.8067525,37.7079848 C92.4625664,37.4569796 93.1908887,37.3312254 93.9914701,37.3312254" id="Fill-13" fill="#FFFFFF"></path>
                    <path d="M110.874219,37.4941776 L110.874219,48.057023 L107.745897,48.057023 L107.745897,39.8266656 L105.838754,39.8266656 C105.751047,41.0897402 105.621728,42.1729865 105.45005,43.0759012 C105.278621,43.979319 105.073306,44.7413892 104.834601,45.3628662 C104.595648,45.9840917 104.328289,46.4833356 104.032276,46.8600951 C103.736262,47.237106 103.421811,47.5258375 103.088671,47.7260381 C102.755781,47.9264902 102.409186,48.0585321 102.049385,48.1234212 C101.689336,48.1878074 101.324302,48.2200004 100.954286,48.2200004 C100.490083,48.2200004 100.162176,48.1807651 99.9705648,48.1030491 C99.7787043,48.02483 99.6827741,47.917939 99.6827741,47.781873 L99.6827741,45.887261 L100.338837,45.887261 C100.55412,45.887261 100.765914,45.858589 100.974718,45.8007421 C101.183023,45.7431467 101.38485,45.6173926 101.57995,45.4237312 C101.77505,45.2305728 101.960183,44.9488835 102.1351,44.5784118 C102.310017,44.2084431 102.469734,43.7127202 102.614502,43.0912433 C102.75902,42.4700178 102.886844,41.702666 102.997973,40.7894393 C103.108854,39.8762127 103.198056,38.7776245 103.265332,37.4941776 L110.874219,37.4941776 Z" id="Fill-15" fill="#FFFFFF"></path>
                    <mask id="mask-4" fill="white">
                        <use xlink:href="#path-3"></use>
                    </mask>
                    <g id="Clip-18"></g>
                    <path d="M113.06387,48.0569476 L116.192193,48.0569476 L116.192193,37.4941022 L113.06387,37.4941022 L113.06387,48.0569476 Z M116.514867,34.6010023 C116.514867,34.8525106 116.464535,35.0886768 116.363621,35.3092496 C116.262708,35.5300739 116.124668,35.7234838 115.949751,35.8897308 C115.774834,36.0564808 115.571512,36.1887741 115.339286,36.2871139 C115.107309,36.3854536 114.860133,36.4344977 114.597508,36.4344977 C114.34186,36.4344977 114.103156,36.3854536 113.881146,36.2871139 C113.659136,36.1887741 113.462292,36.0564808 113.290864,35.8897308 C113.119186,35.7234838 112.984635,35.5300739 112.887209,35.3092496 C112.789535,35.0886768 112.740698,34.8525106 112.740698,34.6010023 C112.740698,34.3432063 112.789535,34.1020098 112.887209,33.8779159 C112.984635,33.6540735 113.119186,33.4571425 113.290864,33.2873744 C113.462292,33.1176063 113.659136,32.985313 113.881146,32.8899913 C114.103156,32.7949212 114.34186,32.7473861 114.597508,32.7473861 C114.860133,32.7473861 115.107309,32.7949212 115.339286,32.8899913 C115.571512,32.985313 115.774834,33.1176063 115.949751,33.2873744 C116.124668,33.4571425 116.262708,33.6540735 116.363621,33.8779159 C116.464535,34.1020098 116.514867,34.3432063 116.514867,34.6010023 Z" id="Fill-17" fill="#FFFFFF" mask="url(#mask-4)"></path>
                    <polygon id="Fill-19" fill="#FFFFFF" mask="url(#mask-4)" points="127.867749 37.4941776 127.867749 48.057023 124.739427 48.057023 124.739427 43.5955174 121.510191 43.5955174 121.510191 48.057023 118.381869 48.057023 118.381869 37.4941776 121.510191 37.4941776 121.510191 41.3342063 124.739427 41.3342063 124.739427 37.4941776"></polygon>
                    <polygon id="Fill-20" fill="#FFFFFF" mask="url(#mask-4)" points="139.472741 37.4941776 139.472741 48.057023 136.344419 48.057023 136.344419 43.5955174 133.115183 43.5955174 133.115183 48.057023 129.98686 48.057023 129.98686 37.4941776 133.115183 37.4941776 133.115183 41.3342063 136.344419 41.3342063 136.344419 37.4941776"></polygon>
                    <path d="M144.6899,40.7740973 C144.6899,41.18808 144.810997,41.5157953 145.053189,41.7569917 C145.295382,41.9979367 145.608339,42.1186607 145.991561,42.1186607 L147.010914,42.1186607 L147.010914,39.4700268 L145.991561,39.4700268 C145.742641,39.4700268 145.534086,39.5095136 145.365897,39.5872297 C145.197708,39.6654488 145.063405,39.7673096 144.962492,39.8928123 C144.861329,40.0185664 144.790814,40.1596626 144.750449,40.3155977 C144.710083,40.4720359 144.6899,40.6247014 144.6899,40.7740973 Z M149.977774,48.057023 L147.010914,48.057023 L147.010914,43.9929005 L146.839236,43.9929005 C146.637409,43.9996912 146.470963,44.0250936 146.3399,44.069359 C146.208588,44.113373 146.100947,44.1709684 146.016977,44.2423967 C145.932757,44.3135736 145.860498,44.3985834 145.79995,44.4971746 C145.739402,44.5955144 145.678854,44.6988843 145.618306,44.8075359 L144.488073,47.0180423 C144.387159,47.1946011 144.282757,47.3475181 144.175365,47.4762904 C144.067475,47.6055656 143.939651,47.7124567 143.791894,47.797215 C143.643638,47.8822248 143.470465,47.9468624 143.272126,47.9906248 C143.073538,48.0351418 142.836329,48.057023 142.560498,48.057023 L140.400947,48.057023 L142.681595,44.5326373 C142.849784,44.2338454 143.044884,43.9929005 143.267143,43.8092994 C143.488904,43.6262014 143.751279,43.4833447 144.05402,43.3814838 C143.589817,43.2798745 143.197874,43.128718 142.878439,42.9282659 C142.559003,42.7283168 142.299867,42.5022108 142.101528,42.250954 C141.90294,41.9996972 141.759917,41.734859 141.672458,41.4564393 C141.585,41.1780196 141.541395,40.9099118 141.541395,40.6518643 C141.541395,40.2444209 141.623621,39.8520679 141.788571,39.4753085 C141.953522,39.0982975 142.212409,38.7622825 142.565731,38.4667602 C142.918804,38.171238 143.369551,37.9355747 143.917973,37.7590159 C144.466146,37.5824571 145.127193,37.4941776 145.900864,37.4941776 L149.977774,37.4941776 L149.977774,48.057023 Z" id="Fill-21" fill="#FFFFFF" mask="url(#mask-4)"></path>
                </g>
            </g>
        </g>
    </g>
</svg>