<?xml version="1.0" encoding="UTF-8"?>
<svg width="260px" height="197px" viewBox="0 0 260 197" version="1.1" xmlns="http://www.w3.org/2000/svg" xmlns:xlink="http://www.w3.org/1999/xlink">
    <!-- Generator: Sketch 49.2 (51160) - http://www.bohemiancoding.com/sketch -->
    <title>Page 1</title>
    <desc>Created with Sketch.</desc>
    <defs>
        <polygon id="path-1" points="0.339616914 0.194043227 240.780025 0.194043227 240.780025 5.83333333 0.339616914 5.83333333"></polygon>
        <polygon id="path-3" points="0.166061282 0.0802447552 55.9972382 0.0802447552 55.9972382 50.679342 0.166061282 50.679342"></polygon>
        <polygon id="path-5" points="0.000143250689 0.225537931 259.96741 0.225537931 259.96741 10.9516759 0.000143250689 10.9516759"></polygon>
    </defs>
    <g id="Page-1" stroke="none" stroke-width="1" fill="none" fill-rule="evenodd">
        <g id="Homepage-Desktop-Copy" transform="translate(-141.000000, -884.000000)">
            <g id="Page-1" transform="translate(141.000000, 884.000000)">
                <g id="Group-3" transform="translate(12.000000, 191.000000)">
                    <mask id="mask-2" fill="white">
                        <use xlink:href="#path-1"></use>
                    </mask>
                    <g id="Clip-2"></g>
                    <path d="M240.780025,3.04713889 C240.779667,4.60425 186.955142,5.85141667 120.558927,5.83313889 C54.1641421,5.81447222 0.339259347,4.53736111 0.339616914,2.98025 C0.339974481,1.42313889 54.1652148,0.175583333 120.560357,0.19425 C186.956572,0.212527778 240.780382,1.48963889 240.780025,3.04713889" id="Fill-1" fill="#C6D5E0" mask="url(#mask-2)"></path>
                </g>
                <polygon id="Fill-4" fill="#CBA67A" points="165.997851 130 79 129.978985 79.0021492 123 166 123.020676"></polygon>
                <polygon id="Fill-6" fill="#797578" points="83.1902011 195 93 128.531651 89.8887195 128 80 194.998914"></polygon>
                <polygon id="Fill-8" fill="#797578" points="163 195 153.119819 128 150 128.529807 159.80141 194.999276"></polygon>
                <path d="M145.419049,75.6488284 L121.732512,76 L98.4951585,75.6372744 C98.4951585,75.6372744 97.488073,72.7872879 98.3463845,69.3774576 C98.9561433,66.9759763 100.550815,64.3080528 104.106012,62.1383517 C105.657768,61.2003771 107.611142,60.3474818 110.013341,59.6538917 C110.593775,59.4935362 111.200672,59.3401831 111.839041,59.1927821 C112.539281,59.0324266 113.268845,58.8850256 114.041683,58.7523297 C114.820959,58.6122812 115.643507,58.4858874 116.501461,58.3812012 C116.501461,58.3812012 116.551529,58.4036089 116.644513,58.4522758 C116.388092,53.914355 114.779831,50 114.779831,50 L128.368691,50.5290331 C127.530764,53.3499596 127.308676,55.8627794 127.386997,58.0062214 C127.423118,57.9782117 127.444933,57.9642068 127.444933,57.9642068 C129.117567,58.1749798 130.641786,58.4480743 132.036184,58.7701858 C132.363773,58.8479127 132.685998,58.9245893 132.993917,59.0023162 C133.795008,59.2130891 134.54603,59.4364665 135.253064,59.6752491 C136.612773,60.1304067 137.814409,60.6482359 138.864768,61.2164826 C142.540844,63.1631565 144.227784,65.6136547 145.193384,67.9465123 C146.865661,71.9865607 145.419049,75.6488284 145.419049,75.6488284" id="Fill-10" fill="#303030"></path>
                <polygon id="Fill-12" fill="#303030" points="107 71.9109485 114.242634 108.677922 126.44016 109 137 70"></polygon>
                <path d="M187,92.8303777 L183.878701,99.6531378 C170.851554,101.473598 158.863753,95.8492119 149.770833,89.3041369 C139.307454,81.7839183 132.670709,73.0570314 132.670709,73.0570314 C132.670709,73.0570314 128.301761,56.4987022 141.865064,63.9082074 C147.216121,66.8307534 155.376201,71.9513397 163.293562,77.0773353 C175.432429,84.9441195 187,92.8303777 187,92.8303777" id="Fill-14" fill="#303030"></path>
                <path d="M187,91.8061891 L183.897915,98.6519676 C170.950957,100.47857 159.036948,94.8352082 150,88.2680518 C152.585071,85.4159758 157.696167,80.2227514 163.439489,76 C175.503634,83.8933247 187,91.8061891 187,91.8061891" id="Fill-16" fill="#FDC288"></path>
                <path d="M193,99 C191.899113,93.2356189 188.292259,89.0011825 184.002473,89.0000004 C179.712334,88.9984244 176.10442,93.2308907 175,98.9948779 L193,99 Z" id="Fill-18" fill="#A2ACAD"></path>
                <path d="M180,94.5012411 C179.999618,95.881764 178.655548,97.0004136 176.999045,96.9999999 C175.342542,96.9995862 174,95.8801092 174,94.4995863 C174.000382,93.118236 175.34407,91.9995864 177.000191,92.0000001 C178.656694,92.0004138 180.000382,93.1198908 180,94.5012411" id="Fill-20" fill="#FBCFAC"></path>
                <path d="M184,89.9994841 C183.999625,91.6569217 183.103649,93.0003439 181.999062,92.9999999 C180.894475,92.999656 179.999625,91.6558899 180,89.9984523 C180.000375,88.3430783 180.895976,86.9996561 182.000938,87.0000001 C183.105525,87.0000001 184.000375,88.3441101 184,89.9994841" id="Fill-22" fill="#FBCFAC"></path>
                <path d="M190.646056,89.651951 C189.938913,91.2687862 188.404198,92.287971 187.220054,91.9275232 C186.033339,91.5667182 185.64591,89.9638151 186.353911,88.34698 C187.061482,86.7312165 188.595341,85.7120317 189.78077,86.0724794 C190.966628,86.4332845 191.354057,88.0361875 190.646056,89.651951" id="Fill-24" fill="#FBCFAC"></path>
                <path d="M193.965233,94.6459292 C192.845935,95.8729581 191.283021,96.3546362 190.47422,95.7206212 C189.665059,95.0869396 189.91691,93.5789041 191.035128,92.3525419 C192.154065,91.126513 193.71698,90.645835 194.52614,91.2791832 C195.334941,91.9125315 195.082731,93.4209004 193.965233,94.6459292" id="Fill-26" fill="#FBCFAC"></path>
                <path d="M195.559743,97.7822971 C193.930719,98.2827919 192.361479,97.8912221 192.053007,96.9059933 C191.744536,95.9204143 192.813926,94.7162847 194.440474,94.2171909 C196.068084,93.7170463 197.638031,94.1100171 197.94721,95.0948956 C198.254973,96.0794239 197.185584,97.2832032 195.559743,97.7822971" id="Fill-28" fill="#FBCFAC"></path>
                <path d="M103.843908,63.0058617 C102.835248,63.0849467 78.2443319,77.7261413 76,97.0340722 C76,97.0340722 79.8365825,108.489117 108,76.0971351 C108,76.0971351 108.00353,62.6794105 103.843908,63.0058617" id="Fill-30" fill="#303030"></path>
                <path d="M75.2354375,96.0856663 C75.2354375,96.0856663 84.6630668,77.0698019 110,97.3619246 C110,97.3619246 71.6595638,101.789831 75.2354375,96.0856663" id="Fill-32" fill="#FDC288"></path>
                <path d="M104,98.3271828 C104,98.3271828 112.276132,83.6525538 125,99 L104,98.3271828 Z" id="Fill-34" fill="#FBCFAC"></path>
                <path d="M145,32.1458951 L145,52.5750806 C145,53.7414596 144.870513,54.8827629 144.625261,55.977497 C143.952138,58.3493015 142.736787,60.5108281 141.111159,62.3155632 L141.146346,62.3155632 L141.429951,62.5330055 C138.371869,66.2957957 133.631509,68.7213339 128.334845,68.7213339 C128.334845,68.7213339 125.892884,71 122.396727,71 C118.897051,71 116.458609,68.7213339 116.458609,68.7213339 C111.252727,68.7213339 106.58274,66.3778292 103.521139,62.7257303 L104.060553,62.3155632 L104.099258,62.3155632 C101.548569,59.4802162 100,55.7779659 100,51.7439997 L100,31.311232 C100,30.1663464 100.126672,29.0465366 100.361368,27.9693555 C102.273769,21.0964601 108.779449,16 116.458609,16 L128.334845,16 C137.499589,16 145,23.2651513 145,32.1458951" id="Fill-36" fill="#000000"></path>
                <path d="M147,30.1422077 L147,50.5748424 C147,52.0374635 146.788568,53.460322 146.391677,54.8083121 C145.69227,57.1804593 144.428802,59.3416137 142.738812,61.146337 C139.555633,64.5558957 134.871947,66.7174083 129.671388,66.7174083 C129.671388,66.7174083 127.136404,69 123.498171,69 C119.86323,69 117.324954,66.7174083 117.324954,66.7174083 C112.127687,66.7174083 107.444367,64.5558957 104.261188,61.146337 C101.609514,58.3110085 100,54.6087823 100,50.5748424 L100,30.1422077 C100,28.9973296 100.131322,27.8775271 100.375309,26.800353 C102.039693,19.5101735 109.024983,14 117.324954,14 L129.671388,14 C139.202637,14 147,21.2651039 147,30.1422077" id="Fill-38" fill="#FDC288"></path>
                <path d="M132,55 C131.188145,57.3864027 129.123323,60.2423988 124.012382,61.6705872 C124.012382,61.6705872 116.513838,64.1521263 113,55.4931873 C116.670677,57.6946447 124.549068,61.0111013 132,55" id="Fill-40" fill="#ED755C"></path>
                <g id="Group-44" transform="translate(94.000000, 0.000000)">
                    <mask id="mask-4" fill="white">
                        <use xlink:href="#path-3"></use>
                    </mask>
                    <g id="Clip-43"></g>
                    <path d="M51.7117197,50.0284678 L51.1303185,50.679342 C51.1303185,50.679342 50.9180892,40.1701322 50.2336051,37.5356077 C50.2336051,37.5356077 48.6763057,31.6028455 46.2636688,30.4387615 C46.2636688,30.4387615 48.3856051,23.1322091 42.8408917,20.7073909 C42.8408917,20.7073909 36.114828,27.4964538 25.1281274,27.448307 C25.1281274,27.448307 17.4778854,28.0299923 10.5470828,23.2773629 C10.5470828,23.2773629 8.90382166,25.9932021 10.2389045,29.5336007 C10.2389045,29.5336007 5.77210191,34.2377266 5.20746497,40.0085727 C5.20746497,40.0085727 4.97882803,47.5594259 5.33123567,49.5009923 C5.33123567,49.5009923 4.92425478,49.3176776 3.37801274,47.6532231 C2.13103185,46.3108175 1.6195414,44.5810972 1.18973248,42.8417476 C-0.14,37.4628524 -0.14856051,29.2386566 1.01459873,24.8458804 C1.01459873,24.8458804 2.72598726,17.4744189 4.23192357,16.8923769 C4.23192357,16.8923769 0.809146497,6.41704825 1.5282293,3.73366364 C1.5282293,3.73366364 3.54743949,8.84222308 10.2902675,8.22772657 C10.2902675,8.22772657 7.41536306,4.28325105 8.0656051,0.0802090909 C8.0656051,0.0802090909 13.199414,3.86312517 18.641758,2.8606007 C18.641758,2.8606007 22.1005605,2.48933497 24.3416306,1.63838392 C25.2907771,1.27817413 26.2666752,0.983943357 27.2728917,0.808831469 C31.1033631,0.141195105 39.2922038,-0.589923776 43.2514395,4.31570559 C43.2514395,4.31570559 46.3835159,7.56508322 46.8967898,10.8383559 C46.8967898,10.8383559 55.3164076,16.7308175 55.7273121,27.0117755 C55.7273121,27.0117755 56.4667261,34.4731112 55.4979618,41.0460483 C55.1601783,43.3385517 54.431465,45.563293 53.3564076,47.6432371 C52.9141146,48.4991811 52.3616051,49.3002021 51.7117197,50.0284678" id="Fill-42" fill="#4A4342" mask="url(#mask-4)"></path>
                </g>
                <path d="M98,8 C98,8 104.886943,31.6448902 130,23.1632782 C130,23.1632782 105.234915,24.7055828 98,8" id="Fill-45" fill="#666261"></path>
                <path d="M105,4 C105,4 112.927537,24.8346524 135,15.671001 C135,15.671001 112.740942,18.5750178 105,4" id="Fill-47" fill="#666261"></path>
                <path d="M111.64868,39.9478329 C111.07706,40.5815434 110.830098,41.5546224 111.125422,42.3709415 C111.337897,42.9575405 111.804865,43.4194821 112.346358,43.683806 C112.887851,43.94813 113.498319,44.026093 114.094516,43.9927398 C114.790212,43.9535499 115.493439,43.7580168 116.053167,43.3215071 C116.612895,42.8849974 117.010492,42.1862482 116.999789,41.4533121 C116.989482,40.7145392 116.564533,40.0232945 115.984192,39.6072136 C115.005858,38.905963 113.524482,38.8067373 112.458938,39.3374698 C112.156875,39.487976 111.878597,39.6926811 111.64868,39.9478329" id="Fill-49" fill="#3E2C38"></path>
                <path d="M113.610846,39.0010034 C113.401531,38.9898437 113.174292,39.0715726 113.066754,39.2560372 C112.950574,39.4556003 113.003063,39.7132599 113.094919,39.9252957 C113.255906,40.2971789 113.530193,40.6162173 113.86977,40.8262837 C114.10405,40.9713609 114.40106,41.0642496 114.649742,40.9464155 C114.866739,40.8436799 114.995721,40.594226 114.999882,40.3487109 C115.004042,40.1038522 114.898104,39.8675274 114.748639,39.6764983 C114.474673,39.3266064 114.059882,39.0249641 113.610846,39.0010034" id="Fill-51" fill="#FFFFFF"></path>
                <path d="M130.648449,39.9478329 C130.077241,40.5815434 129.82989,41.5546224 130.125602,42.3709415 C130.337674,42.9575405 130.804629,43.4194821 131.346107,43.683806 C131.887585,43.94813 132.498036,44.026093 133.094217,43.9927398 C133.789893,43.9535499 134.4931,43.7580168 135.052813,43.3215071 C135.612525,42.8849974 136.010111,42.1862482 135.999804,41.4533121 C135.989101,40.7145392 135.564164,40.0232945 134.98384,39.6072136 C134.005532,38.905963 132.524198,38.8067373 131.458684,39.3374698 C131.15663,39.487976 130.878359,39.6926811 130.648449,39.9478329" id="Fill-53" fill="#3E2C38"></path>
                <path d="M132.610846,39.0010034 C132.401531,38.9898437 132.174292,39.0715726 132.066754,39.2560372 C131.950574,39.4556003 132.003063,39.7132599 132.094919,39.9252957 C132.255906,40.2971789 132.530193,40.6162173 132.86977,40.8262837 C133.10405,40.9713609 133.40106,41.0642496 133.649742,40.9464155 C133.866739,40.8436799 133.995721,40.594226 133.999882,40.3487109 C134.004042,40.1038522 133.898104,39.8675274 133.748639,39.6764983 C133.474673,39.3266064 133.059882,39.0249641 132.610846,39.0010034" id="Fill-55" fill="#FFFFFF"></path>
                <path d="M141.873707,46.0753579 C140.278432,47.8653287 138.219248,48.6810434 135.960883,48.7382045 C134.086315,48.7205888 132.483757,48.2550311 131.055256,47.2527337 C127.408079,44.7045689 126.91504,39.7973384 129.989432,36.6757646 C133.111162,33.5085338 138.476691,33.5009843 141.605704,36.6613845 C144.215824,39.2925947 144.342543,43.3118502 141.873707,46.0753579 M115.944744,47.2527337 C114.516243,48.2550311 112.913685,48.7205888 111.039482,48.7382045 C108.780752,48.6810434 106.721568,47.8653287 105.126293,46.0753579 C102.657457,43.3118502 102.784176,39.2925947 105.39466,36.6613845 C108.523309,33.5009843 113.888838,33.5085338 117.010568,36.6757646 C120.08496,39.7973384 119.591921,44.7045689 115.944744,47.2527337 M146.855074,37.1201117 C146.735638,36.6045828 146.478195,36.2824672 145.879921,36.2073308 C145.020562,36.0998391 144.24459,35.7241574 143.519597,35.2585996 C141.808527,34.1631907 139.963091,33.4046372 137.933038,33.1181124 C136.105444,32.860348 134.314628,33.0505257 132.520171,33.4369925 C130.584065,33.8482652 129.046687,34.9044881 127.622191,36.1749755 C127.314132,36.4507151 127.016634,36.7404754 126.715858,37.0230456 C126.190047,37.5137686 125.79132,37.5529546 125.182122,37.1628927 C124.627544,36.8087811 124.065684,36.6186035 123.500182,36.5722275 C122.934316,36.6186035 122.372456,36.8087811 121.817878,37.1628927 C121.20868,37.5529546 120.809953,37.5137686 120.284142,37.0230456 C119.983366,36.7404754 119.685868,36.4507151 119.378174,36.1749755 C117.953313,34.9044881 116.415935,33.8482652 114.480193,33.4369925 C112.685372,33.0505257 110.894556,32.860348 109.066962,33.1181124 C107.036909,33.4046372 105.191837,34.1631907 103.480038,35.2585996 C102.755046,35.7241574 101.979438,36.0998391 101.120443,36.2073308 C100.52217,36.2824672 100.264726,36.6045828 100.144926,37.1201117 C100.087028,37.3847067 100.050979,37.6528967 100,37.9214462 L100,38.9381237 C100.144926,39.1027766 100.257443,39.3213551 100.438783,39.4284873 C101.138286,39.847669 101.51553,40.4487598 101.674657,41.2292431 C101.823588,41.9593959 101.990362,42.6927842 102.215397,43.4053212 C102.849721,45.4239366 103.922827,47.1204362 105.782828,48.2909815 C108.124581,49.7656671 110.60434,50.4206835 113.352467,49.7156961 C115.314063,49.2141879 117.083031,48.3592872 118.493325,46.880647 C119.660742,45.6601307 120.389377,44.1962302 120.900622,42.6140528 C121.060113,42.1308793 121.183555,41.6405158 121.342682,41.1573423 C121.553152,40.5203011 121.995576,40.1014789 122.673231,40.0227475 C122.945604,39.9939872 123.224532,39.976012 123.500182,39.9691814 C123.775468,39.976012 124.054396,39.9939872 124.326769,40.0227475 C125.004788,40.1014789 125.447212,40.5203011 125.657318,41.1573423 C125.816445,41.6405158 125.939887,42.1308793 126.099742,42.6140528 C126.610623,44.1962302 127.339258,45.6601307 128.506675,46.880647 C129.916969,48.3592872 131.686302,49.2141879 133.647533,49.7156961 C136.39566,50.4206835 138.875783,49.7656671 141.217536,48.2909815 C143.077538,47.1204362 144.150643,45.4239366 144.784967,43.4053212 C145.009638,42.6927842 145.176412,41.9593959 145.325343,41.2292431 C145.48447,40.4487598 145.86135,39.847669 146.561217,39.4284873 C146.742557,39.3213551 146.855074,39.1027766 147,38.9381237 L147,37.9214462 C146.949021,37.6528967 146.912972,37.3847067 146.855074,37.1201117" id="Fill-57" fill="#478778"></path>
                <path d="M162,130.81658 L162,130.854674 C127.107033,133.375065 96.3209542,130.965049 95,130.860209 C95.6814361,130.323962 96.5660132,130 97.5304853,130 L159.521464,130 C160.461932,130 161.326446,130.306055 162,130.81658" id="Fill-59" fill="#FFFFFF"></path>
                <path d="M152,127.06618 L146.904318,174.315336 C143.386679,175.164026 139.717626,175.088263 138.165802,174.807619 C137.521733,174.696642 136.899822,174.526264 136.899822,174.526264 L130.254532,136.194036 L129,127.868985 L146.927584,117 L152,127.06618 Z" id="Fill-61" fill="#323D43"></path>
                <path d="M141,176 L136.646208,175.549227 L129.153343,135.892326 L128.707574,133.438636 C128.707574,133.438636 123.566497,116.574166 141,123.799753 L141,176 Z" id="Fill-63" fill="#252D30"></path>
                <path d="M136.543929,182.902043 C136.250648,183.642642 135.953364,184.410606 136.006125,185.199438 C136.103643,186.6519 137.368101,187.810517 138.731895,188.49912 C140.303461,189.293767 142.074429,189.658764 143.82502,189.984764 C148.845006,190.919663 154.116065,191.59595 159.01852,190.21464 C159.542133,190.066863 160.079209,189.884535 160.461275,189.517144 C161.063484,188.93869 161.139533,187.993529 160.79531,187.252246 C160.451814,186.510622 159.756454,185.955772 158.996688,185.576065 C158.236922,185.196701 157.404017,184.969561 156.590398,184.706161 C152.4055,183.351533 148.605578,180.961094 145.677495,177.841002 C145.399497,177.544763 145.112401,177.230735 144.719782,177.090141 C144.345721,176.956047 143.930179,176.999149 143.533194,177.044303 C142.549282,177.15582 141.565735,177.26768 140.581823,177.379197 C139.960329,177.450007 138.863981,177.338832 138.50775,177.914549 C138.095482,178.581601 137.894624,179.489133 137.608256,180.213654 C137.253117,181.109898 136.898705,182.006141 136.543929,182.902043" id="Fill-65" fill="#1A1A1A"></path>
                <path d="M137.450233,179 L146.550119,179 C147.350962,179 148,178.273984 148,177.378644 L148,175.620963 C148,174.726016 147.350962,174 146.550119,174 L137.450233,174 C136.649389,174 136,174.726016 136,175.620963 L136,177.378644 C136,178.273984 136.649389,179 137.450233,179" id="Fill-67" fill="#171516"></path>
                <path d="M176.263013,164.409259 C176.449227,165.18271 176.647373,165.981233 177.148884,166.615587 C178.072722,167.784006 179.794929,168.101355 181.327305,167.973591 C183.093625,167.825564 184.776419,167.214908 186.419801,166.581585 C191.131915,164.765761 195.902966,162.602708 199.173459,158.904087 C199.523107,158.508431 199.863354,158.077401 199.967851,157.570811 C200.13237,156.774005 199.647129,155.941137 198.9312,155.497055 C198.215633,155.05263 197.316383,154.94719 196.464862,155.022062 C195.613702,155.097278 194.78966,155.338037 193.96128,155.538612 C189.699334,156.569652 185.156078,156.531529 180.913658,155.429739 C180.510857,155.32533 180.09034,155.210274 179.682477,155.295793 C179.294501,155.376847 178.974141,155.628597 178.670052,155.872447 C177.917966,156.475203 177.165517,157.078646 176.413069,157.682089 C175.937591,158.063319 174.96277,158.537968 175.001098,159.205636 C175.045211,159.979431 175.404983,160.844927 175.587219,161.601205 C175.812484,162.537452 176.037748,163.473012 176.263013,164.409259" id="Fill-69" fill="#1A1A1A"></path>
                <path d="M175.281245,162.741396 L183.309193,157.318078 C184.016048,156.840728 184.212602,155.86466 183.748659,155.137379 L182.838205,153.710672 C182.374262,152.983773 181.425238,152.781157 180.718755,153.258507 L172.690807,158.681825 C171.983952,159.159175 171.787398,160.135242 172.251341,160.862142 L173.161795,162.28923 C173.625738,163.016511 174.574762,163.218746 175.281245,162.741396" id="Fill-71" fill="#171516"></path>
                <path d="M103.298682,111.359499 C103.298682,111.359499 98.8471777,132.694763 124.314678,133.024729 C124.314678,133.024729 131.273577,133.078645 137.370178,127.308918 C139.972469,124.846756 144.099895,125.065295 146.469781,127.752826 L174.017109,159 L181,154.381918 L161.466883,110.626602 C158.661909,104.343595 151.36998,101.298062 145.049926,103.971934 C144.39067,104.251219 143.716731,104.589093 143.029543,104.993822 C140.686515,106.374789 137.371253,110.095709 134.728139,111.170074 C129.181216,113.423402 112.69837,114.821623 103.298682,111.359499" id="Fill-73" fill="#1D2426"></path>
                <path d="M105,31 C105,31 105.760003,29.3047251 109.398383,29.0442516 C109.398383,29.0442516 116.706563,28.5877639 118,30.6070924 L112.271873,30.2080318 C111.830603,30.1772672 111.385842,30.1687703 110.942129,30.1857641 C109.718164,30.2320575 107.207047,30.3987722 105,31" id="Fill-75" fill="#4A4342"></path>
                <path d="M139,31 C139,31 138.239997,29.3047251 134.601966,29.0442516 C134.601966,29.0442516 127.293786,28.5877639 126,30.6070924 L131.728476,30.2080318 C132.169397,30.1772672 132.614507,30.1687703 133.057871,30.1857641 C134.282185,30.2320575 136.792953,30.3987722 139,31" id="Fill-77" fill="#4A4342"></path>
                <path d="M46.5849782,85.9016883 C47.3393942,84.8606346 49.753024,85.4418141 51.2661525,85.9820758 L51.2647203,91.127597 C48.31258,88.9712579 46.021046,86.6805776 46.5849782,85.9016883 M51.4673779,92.9301589 C52.044916,95.2849319 53.8222871,97.1888834 56.1360203,97.9985516 L61.121539,98 C63.9630411,97.0074684 65.9967775,94.3680804 65.9974936,91.2651971 L66,82.003259 L51.2672267,82 L51.2665106,84.6245417 C49.4250482,84.0491558 46.5373573,83.5121532 45.2788039,85.2517087 C43.7760588,87.3262119 48.7085858,91.0689359 51.4673779,92.9301589" id="Fill-79" fill="#E93D5B"></path>
                <path d="M61.4154143,73.1884128 C62.3347239,71.271486 62.637769,66.0469948 58.880954,66.000366 C55.5263824,65.9578514 55.25604,69.6295325 55.7338629,71.8303468 C54.4188505,69.0953575 50.1119032,71.7196032 51.1638405,74.7422515 C52.2611982,77.8975863 57.2981427,77.3291255 58.9227408,80 L60.7344711,78.3875324 C63.0334718,77.9771297 65.0036286,76.7781504 64.999995,74.8447664 C64.9981782,73.2820134 62.5523786,71.2317143 61.4154143,73.1884128" id="Fill-81" fill="#FFFFFF"></path>
                <path d="M159.992471,90.3270984 C159.992112,91.8041542 158.770901,93 157.265004,93 L105.726033,92.986994 C104.219418,92.9866425 102.999283,91.7897422 103,90.3126864 L103.006813,62.6732532 C103.007171,61.1961973 104.228024,59.9996486 105.734638,60.0000001 L157.273251,60.0126545 C158.779148,60.013006 160,61.2102579 160,62.6873137 L159.992471,90.3270984 Z" id="Fill-83" fill="#A2ACAD"></path>
                <path d="M98.0096555,93 C98.0067947,93.0693006 98.0000002,93.1366098 98.0000002,93.2075036 C97.999285,95.8457064 99.9185529,97.983272 102.286973,97.9836703 L159.710166,97.9999998 C162.078944,98.0007963 163.999285,95.8644256 164,93.2258244 C164,93.155329 163.993563,93.0880198 163.990345,93.0187191 L98.0096555,93 Z" id="Fill-85" fill="#7E9091"></path>
                <path d="M135,77.5007457 C134.999627,79.4328859 133.432095,81.0003728 131.499441,80.9999999 C129.567159,80.9996271 127.999627,79.4310216 128,77.4988814 C128.000373,75.5663684 129.56865,73.9996272 131.500932,74.0000001 C133.43396,74.0007458 135.000373,75.5678598 135,77.5007457" id="Fill-87" fill="#00E1E6"></path>
                <polygon id="Fill-89" fill="#797578" points="25.5771759 193 51 100.73999 44.9015835 99 19 192.998222"></polygon>
                <polygon id="Fill-91" fill="#797578" points="233.413751 192.998222 208 100.736573 214.108203 99 240 193"></polygon>
                <g id="Group-95" transform="translate(0.000000, 98.000000)">
                    <mask id="mask-6" fill="white">
                        <use xlink:href="#path-5"></use>
                    </mask>
                    <g id="Clip-94"></g>
                    <polygon id="Fill-93" fill="#DFAD5C" mask="url(#mask-6)" points="259.964689 10.9516759 0.000143250689 10.8815034 0.00229201102 0.225537931 259.967554 0.295331034"></polygon>
                </g>
            </g>
        </g>
    </g>
</svg>